<svg xmlns="http://www.w3.org/2000/svg" width="193.276" height="37.862" viewBox="0 0 193.276 37.862">
  <g id="armony_luxury_resort___spa_hz" data-name="armony_luxury_resort_&amp;_spa_hz" transform="translate(-165.48 -259.4)">
    <g id="Grupo_66" data-name="Grupo 66" transform="translate(165.48 259.4)">
      <g id="Grupo_64" data-name="Grupo 64" transform="translate(37.241 1.086)">
        <path id="Trazado_739" data-name="Trazado 739" d="M262.874,263h-1.3L254.6,279.088h1.379l6.185-14.793,6.143,14.793h1.379Z" transform="translate(-254.6 -262.582)" fill="#00303f"/>
        <path id="Trazado_740" data-name="Trazado 740" d="M334.447,279.088h-1.5l-4.6-7.731h-3.092v7.731H324V263h4.638c2.925,0,5.349,1,5.349,4.179,0,2.591-2.048,3.928-4.3,4.1Zm-9.193-15.044v6.226h3.218c2.758,0,4.262-1.086,4.262-3.134,0-2.34-1.88-3.134-4.3-3.134h-3.176Z" transform="translate(-294.999 -262.582)" fill="#00303f"/>
        <path id="Trazado_741" data-name="Trazado 741" d="M399.379,279.03h-1.254V264.488h-.084l-6.268,14.542h-.71L384.8,264.488h-.042V279.03H383.5V262.942h1.964l5.976,14.041.042-.042,5.934-14.041h1.964Z" transform="translate(-329.636 -262.524)" fill="#00303f"/>
        <path id="Trazado_742" data-name="Trazado 742" d="M465.558,278.966a8.484,8.484,0,1,1,8.358-8.483A8.181,8.181,0,0,1,465.558,278.966Zm0-15.879c-4.3,0-7.062,3.385-7.062,7.355s2.716,7.4,7.062,7.4,7.02-3.385,7.02-7.4S469.82,263.086,465.558,263.086Z" transform="translate(-372.538 -262)" fill="#00303f"/>
        <path id="Trazado_743" data-name="Trazado 743" d="M545.938,279.088H544.35L534.2,264.713h-.042V279.13H532.9V263h1.588L544.6,277.333h.042V263H545.9v16.088Z" transform="translate(-416.605 -262.582)" fill="#00303f"/>
        <path id="Trazado_744" data-name="Trazado 744" d="M609.9,263l-5.85,9.11v6.979h-1.254V272.11L596.9,263h1.546l4.973,8.065L608.392,263Z" transform="translate(-453.861 -262.582)" fill="#00303f"/>
      </g>
      <g id="Grupo_65" data-name="Grupo 65">
        <path id="Trazado_745" data-name="Trazado 745" d="M207.5,275.923a34.178,34.178,0,0,0-1.964-8.065h0l-.418-1.128c-.418-1.128-.836-2.131-1.17-2.842l-.251-.543c-.46-1.086-.836-2.006-1.086-2.633l-.334-.836-.167-.376-.334.251-.71.543q-.815.627-2.257,1.755l-.5.376c-.669.5-1.5,1.128-2.424,1.88l-.919.752h0a34.537,34.537,0,0,0-5.725,6.017s-1.755,2.842-2.006,3.3c-.125.251-.209.46-.334.71a3.62,3.62,0,0,1-.209.5l-.042.042-.042.084a11.091,11.091,0,0,0-.5,1.546c-.042.125-.042.251-.084.376l-.125,1.212a6.547,6.547,0,0,0,4.806,6.393,5.734,5.734,0,0,0,1.672.209,6.52,6.52,0,0,0,2.8-.627,6.524,6.524,0,0,0,3.677,2.633,5.733,5.733,0,0,0,1.672.209,6.536,6.536,0,0,0,5.683-3.343l.5-1.128.125-.376c.125-.5.251-1.045.334-1.588v-.167c0-.084.042-.293.084-.585.042-.251.042-.46.084-.71A18.12,18.12,0,0,0,207.5,275.923Zm-3.719-2.424a5.526,5.526,0,0,0-1.379-.209,4.259,4.259,0,0,0-2.131.543,6.169,6.169,0,0,0-2.131,2.048l1.212-4.471h0c.084-.251.878-2.716,2.591-3.677a2.74,2.74,0,0,1,1.379-.376,3.483,3.483,0,0,1,.919.125c.251.084.46.167.669.251a34.932,34.932,0,0,1,2.006,8.232A4.856,4.856,0,0,0,203.784,273.5Zm-.543-9.945c.084.167.167.376.251.543.334.752.71,1.713,1.128,2.842-.042,0-.125-.042-.167-.042a3.52,3.52,0,0,0-1.128-.167,3.63,3.63,0,0,0-1.713.46,5.1,5.1,0,0,0-1.5,1.337l2.048-7.564C202.364,261.464,202.7,262.258,203.241,263.553Zm-4.471-.71.5-.376c1.086-.836,1.8-1.379,2.257-1.755l-2.048,7.564a5,5,0,0,0-.627-1.88,3.648,3.648,0,0,0-2.3-1.671c-.084,0-.125-.042-.167-.042.919-.71,1.755-1.337,2.382-1.839Zm-3.051,2.424a2.318,2.318,0,0,1,.71.125,2.987,2.987,0,0,1,1.922,1.379c1,1.672.46,4.262.418,4.471h0l-1.212,4.471a6.491,6.491,0,0,0-.836-2.842,4.353,4.353,0,0,0-2.883-2.048,5.191,5.191,0,0,0-1.379-.167,4.877,4.877,0,0,0-2.549.71A33.932,33.932,0,0,1,195.719,265.267Zm-8.859,12.118a10.588,10.588,0,0,1,.5-1.5c.042-.042.042-.084.084-.125a2.819,2.819,0,0,1,.167-.5c.084-.209.209-.46.293-.669a8.339,8.339,0,0,1,.919-1.463,4.557,4.557,0,0,1,3.552-1.839,4.508,4.508,0,0,1,1.254.167,3.851,3.851,0,0,1,2.465,1.755c1.3,2.173.585,5.474.5,5.767h0l-.627,2.465a6.2,6.2,0,0,0-4.137-4.262,7.553,7.553,0,0,0-2.048-.293,5.792,5.792,0,0,0-3.051.836A2.875,2.875,0,0,0,186.86,277.385Zm5.725,7.522a6.555,6.555,0,0,1-1.546-.209,5.926,5.926,0,0,1-4.388-6.059,4.758,4.758,0,0,1,3.134-1.045,8.337,8.337,0,0,1,1.88.251c3.176.836,3.886,4.429,3.97,4.889l-.418,1.546a5.812,5.812,0,0,1-2.633.627Zm8.19,2.173a6.557,6.557,0,0,1-1.546-.209,6.043,6.043,0,0,1-3.385-2.424l.418-1.546a6.618,6.618,0,0,1,4.638-2.424,4.227,4.227,0,0,1,1.212.167,5.371,5.371,0,0,1,3.97,3.218,6,6,0,0,1-5.307,3.218Zm6.268-7.313c0,.209-.042.46-.042.669-.042.334-.084.585-.084.585v.125c-.084.5-.209,1.045-.334,1.546a.984.984,0,0,0-.084.334,6.3,6.3,0,0,0-4.137-3.009,5.844,5.844,0,0,0-1.421-.209,6.512,6.512,0,0,0-4.262,1.8l.669-2.424h0c.084-.293,1.128-3.51,3.343-4.722a3.493,3.493,0,0,1,1.8-.46,4.228,4.228,0,0,1,1.212.167,4.377,4.377,0,0,1,3.3,3.886c.042.585.042,1.212.042,1.713Z" transform="translate(-177.366 -259.458)" fill="#00303f"/>
        <path id="Trazado_746" data-name="Trazado 746" d="M180.615,268.092l.376-.418-.376-.376c-.794-.794-1.63-1.546-2.549-2.34h.042l-.919-.752c-.919-.752-1.8-1.421-2.424-1.88l-.5-.376q-1.442-1.066-2.257-1.755l-.71-.543-.334-.251-.167.376-.334.836c-.251.669-.627,1.546-1.086,2.633l-.251.543c-.293.71-.71,1.713-1.17,2.842l-.418,1.128h0a36.921,36.921,0,0,0-1.964,8.065s-.125,3.343-.084,3.844a4.6,4.6,0,0,0,.084.752c.042.251.084.585.084.585v.084c.084.543.209,1.086.334,1.588l.125.376.5,1.128a6.536,6.536,0,0,0,5.683,3.343,7.323,7.323,0,0,0,1.672-.209,6.43,6.43,0,0,0,3.636-2.549l.334-.5-.5-.334a6.243,6.243,0,0,1-2.591-3.259l-.084-.251h0l-.084-.5a6.4,6.4,0,0,1,.084-2.674,2.356,2.356,0,0,1,.167-.5l.5-1.379.334-.71a29.334,29.334,0,0,1,4.847-6.561Zm-5.265,6.393-.878-3.259h0c-.042-.251-.627-2.8.418-4.471a2.887,2.887,0,0,1,1.922-1.379c.251-.042.46-.084.71-.125a35.4,35.4,0,0,1,2.716,2.465,25.069,25.069,0,0,0-4.889,6.77Zm-1.421-12.035a5.222,5.222,0,0,0,.5.376c.627.5,1.463,1.128,2.424,1.88a1.808,1.808,0,0,1-.209.042,3.507,3.507,0,0,0-2.3,1.672,5.262,5.262,0,0,0-.627,1.88l-2.048-7.564C172.091,261.03,172.8,261.615,173.929,262.451Zm-4.221,1.588c.084-.209.167-.376.251-.543.543-1.254.878-2.089,1.086-2.633l2.048,7.564a5.168,5.168,0,0,0-1.5-1.337,3.59,3.59,0,0,0-2.842-.293c-.084,0-.125.042-.167.042.418-1.086.794-2.048,1.128-2.8Zm-1.463,3.677a3.166,3.166,0,0,1,.669-.251,3.728,3.728,0,0,1,.919-.125,2.63,2.63,0,0,1,1.379.376c1.713.961,2.507,3.468,2.591,3.677h0l1.212,4.471a6.578,6.578,0,0,0-2.131-2.048,4.259,4.259,0,0,0-2.131-.543,5.253,5.253,0,0,0-1.379.209,4.96,4.96,0,0,0-3.134,2.465A35.992,35.992,0,0,1,168.246,267.716Zm-1.922,13.2s-.042-.209-.084-.543c-.042-.251-.042-.5-.084-.752a8.23,8.23,0,0,1,.084-1.713,4.531,4.531,0,0,1,3.3-3.886,4.227,4.227,0,0,1,1.212-.167,3.828,3.828,0,0,1,1.8.46,6.013,6.013,0,0,1,2.006,1.964c-.084.293-.167.543-.251.836a6.326,6.326,0,0,0-.084,2.925,5.863,5.863,0,0,0-1.964-.376,4.34,4.34,0,0,0-1.421.209,6.3,6.3,0,0,0-4.137,3.009.984.984,0,0,1-.084-.334c-.125-.5-.251-1.045-.334-1.546.042.042.042-.042.042-.084Zm10.948,3.594a6.057,6.057,0,0,1-3.3,2.34,6.553,6.553,0,0,1-1.546.209,5.957,5.957,0,0,1-5.307-3.259c.209-.585,1-2.424,3.97-3.218a4.227,4.227,0,0,1,1.212-.167,5.194,5.194,0,0,1,2.173.5,6.622,6.622,0,0,0,2.8,3.594Z" transform="translate(-165.48 -259.4)" fill="#00303f"/>
      </g>
    </g>
    <g id="Grupo_68" data-name="Grupo 68" transform="translate(202.721 283.256)">
      <g id="Grupo_67" data-name="Grupo 67" transform="translate(0)">
        <path id="Trazado_747" data-name="Trazado 747" d="M255.352,321.606h2.465v.669H254.6V316.8h.752Z" transform="translate(-254.6 -316.67)" fill="#00303f"/>
        <path id="Trazado_748" data-name="Trazado 748" d="M267.694,320.268V316.8h.752v3.427a1.324,1.324,0,0,0,1.379,1.5,1.365,1.365,0,0,0,1.379-1.5V316.8h.752v3.468a2.024,2.024,0,0,1-2.131,2.173,2.045,2.045,0,0,1-2.131-2.173Z" transform="translate(-262.22 -316.67)" fill="#00303f"/>
        <path id="Trazado_749" data-name="Trazado 749" d="M285.665,318.848l1.3-2.048h.878l-1.755,2.591,2.006,2.883h-.961l-1.5-2.3-1.463,2.3H283.2l1.964-2.883-1.755-2.591h.919Z" transform="translate(-271.249 -316.67)" fill="#00303f"/>
        <path id="Trazado_750" data-name="Trazado 750" d="M300.4,320.268V316.8h.752v3.427a1.323,1.323,0,0,0,1.379,1.5,1.365,1.365,0,0,0,1.379-1.5V316.8h.752v3.468a2.024,2.024,0,0,1-2.131,2.173,2.069,2.069,0,0,1-2.131-2.173Z" transform="translate(-281.258 -316.67)" fill="#00303f"/>
        <path id="Trazado_751" data-name="Trazado 751" d="M318.252,322.274H317.5V316.8h1.755c1.045,0,1.964.418,1.964,1.5a1.486,1.486,0,0,1-1.337,1.463l1.546,2.507h-.919l-1.379-2.424h-.836v2.424Zm0-3.05h.878c.71,0,1.3-.251,1.3-.878,0-.669-.585-.878-1.212-.878h-.919v1.755Z" transform="translate(-291.216 -316.67)" fill="#00303f"/>
        <path id="Trazado_752" data-name="Trazado 752" d="M333.642,322.274h-.794v-2.382L330.8,316.8h.961l1.5,2.465,1.5-2.465h.878l-2.048,3.092v2.382Z" transform="translate(-298.958 -316.67)" fill="#00303f"/>
        <path id="Trazado_753" data-name="Trazado 753" d="M356.652,322.274H355.9V316.8h1.755c1.045,0,1.964.418,1.964,1.5a1.486,1.486,0,0,1-1.337,1.463l1.546,2.507h-.961l-1.379-2.424h-.836Zm0-3.05h.878c.71,0,1.3-.251,1.3-.878,0-.669-.585-.878-1.212-.878h-.919v1.755Z" transform="translate(-313.569 -316.67)" fill="#00303f"/>
        <path id="Trazado_754" data-name="Trazado 754" d="M371.752,321.606h2.883v.669H371V316.8h3.51v.669h-2.758v1.63h2.591v.669h-2.591Z" transform="translate(-322.359 -316.67)" fill="#00303f"/>
        <path id="Trazado_755" data-name="Trazado 755" d="M387.692,317.628a1.3,1.3,0,0,0-1.086-.5c-.5,0-1.086.251-1.086.878,0,.585.5.752,1.128.961.752.251,1.63.5,1.63,1.588a1.7,1.7,0,0,1-1.88,1.672,2.262,2.262,0,0,1-1.8-.794l.585-.5a1.463,1.463,0,0,0,1.212.627.992.992,0,0,0,1.086-.919c0-.669-.585-.836-1.3-1.045s-1.421-.543-1.421-1.546c0-1.086.961-1.546,1.88-1.546a2.278,2.278,0,0,1,1.588.627Z" transform="translate(-330.276 -316.495)" fill="#00303f"/>
        <path id="Trazado_756" data-name="Trazado 756" d="M402.042,322.267a2.883,2.883,0,1,1,2.925-2.883,2.822,2.822,0,0,1-2.925,2.883Zm0-5.1a2.285,2.285,0,1,0,2.089,2.215A2.066,2.066,0,0,0,402.042,317.169Z" transform="translate(-338.775 -316.495)" fill="#00303f"/>
        <path id="Trazado_757" data-name="Trazado 757" d="M419.952,322.274H419.2V316.8h1.755c1.045,0,1.964.418,1.964,1.5a1.486,1.486,0,0,1-1.337,1.463l1.546,2.507h-.919l-1.379-2.424h-.836v2.424Zm0-3.05h.878c.71,0,1.3-.251,1.3-.878,0-.669-.585-.878-1.212-.878h-.961Z" transform="translate(-350.418 -316.67)" fill="#00303f"/>
        <path id="Trazado_758" data-name="Trazado 758" d="M435.307,322.274h-.752v-4.806H432.8V316.8h4.262v.669h-1.755Z" transform="translate(-358.334 -316.67)" fill="#00303f"/>
        <path id="Trazado_759" data-name="Trazado 759" d="M459.986,320.8l1.254,1.3h-1l-.669-.71a2,2,0,0,1-1.672.836,1.61,1.61,0,0,1-1.8-1.546,1.761,1.761,0,0,1,1.212-1.588,1.91,1.91,0,0,1-.627-1.254,1.35,1.35,0,0,1,1.463-1.337,1.307,1.307,0,0,1,1.421,1.3,1.7,1.7,0,0,1-1.17,1.463l1.086,1.128.669-1.17h.836Zm-2.215-1.254a1.145,1.145,0,0,0-.878,1.086.98.98,0,0,0,1,.961,1.385,1.385,0,0,0,1.17-.669Zm.418-2.465a.715.715,0,0,0-.752.71,1.613,1.613,0,0,0,.543.961c.46-.209.878-.5.878-1a.634.634,0,0,0-.669-.669Z" transform="translate(-371.898 -316.488)" fill="#00303f"/>
        <path id="Trazado_760" data-name="Trazado 760" d="M484.492,317.628a1.3,1.3,0,0,0-1.086-.5c-.5,0-1.086.251-1.086.878,0,.585.5.752,1.128.961.752.251,1.63.5,1.63,1.588a1.7,1.7,0,0,1-1.88,1.672,2.262,2.262,0,0,1-1.8-.794l.585-.5a1.463,1.463,0,0,0,1.212.627.992.992,0,0,0,1.086-.919c0-.669-.585-.836-1.3-1.045s-1.421-.543-1.421-1.546c0-1.086.961-1.546,1.88-1.546a2.278,2.278,0,0,1,1.588.627Z" transform="translate(-386.626 -316.495)" fill="#00303f"/>
        <path id="Trazado_761" data-name="Trazado 761" d="M496.5,316.8h1.672c1.17,0,1.964.46,1.964,1.5,0,1.086-.836,1.546-2.006,1.546h-.878v2.424H496.5V316.8Zm.752,2.424h.794c.752,0,1.3-.251,1.3-.878,0-.669-.543-.878-1.254-.878h-.836Z" transform="translate(-395.416 -316.67)" fill="#00303f"/>
        <path id="Trazado_762" data-name="Trazado 762" d="M510.536,322.274H509.7l2.382-5.474h.71l2.34,5.474h-.878l-.543-1.337h-2.633Zm.836-2.006h2.048l-1-2.549Z" transform="translate(-403.1 -316.67)" fill="#00303f"/>
      </g>
    </g>
    <g id="Grupo_69" data-name="Grupo 69" transform="translate(202.721 292.577)">
      <path id="Trazado_763" data-name="Trazado 763" d="M255.31,343.471h-.71L256.522,339h.585l1.922,4.471h-.71l-.46-1.086h-2.131Zm.669-1.63h1.672l-.836-2.089Z" transform="translate(-254.6 -338.914)" fill="#00303f"/>
      <path id="Trazado_764" data-name="Trazado 764" d="M279.67,343.471l.042-3.176h0l-1.17,3.176h-.752l-1.128-3.176h0l.042,3.176h-1V339h1.546l1,2.883h.042l.961-2.883H280.8v4.471Z" transform="translate(-266.883 -338.914)" fill="#00303f"/>
      <path id="Trazado_765" data-name="Trazado 765" d="M294.952,343.471l-.334-.878H292.9l-.334.878H291.4L293.28,339h1.045l1.839,4.471Zm-1.212-3.259-.585,1.546h1.128Z" transform="translate(-276.022 -338.914)" fill="#00303f"/>
      <path id="Trazado_766" data-name="Trazado 766" d="M308.782,343.471l-.961-1.755h-.376v1.755H306.4V339h1.713c.878,0,1.713.334,1.713,1.337a1.176,1.176,0,0,1-.919,1.212l1.17,1.922Zm-.794-3.594H307.4v1.045h.5c.334,0,.794-.084.794-.543C308.7,339.961,308.322,339.878,307.988,339.878Z" transform="translate(-284.754 -338.914)" fill="#00303f"/>
      <path id="Trazado_767" data-name="Trazado 767" d="M319,343.471V339h1.086v4.471Z" transform="translate(-292.089 -338.914)" fill="#00303f"/>
      <path id="Trazado_768" data-name="Trazado 768" d="M327.958,343.471h-1.086L325.2,339h1.212l1.045,3.176h.042L328.543,339h1.212Z" transform="translate(-295.698 -338.914)" fill="#00303f"/>
      <path id="Trazado_769" data-name="Trazado 769" d="M341.752,343.471l-.334-.878H339.7l-.334.878H338.2l1.88-4.471h1.045l1.839,4.471Zm-1.17-3.259L340,341.758h1.128Z" transform="translate(-303.266 -338.914)" fill="#00303f"/>
      <path id="Trazado_770" data-name="Trazado 770" d="M353.2,343.471V339h1.086v3.51H356v.961h-2.8Z" transform="translate(-311.997 -338.914)" fill="#00303f"/>
      <path id="Trazado_771" data-name="Trazado 771" d="M373.75,342.682a2.048,2.048,0,0,1-1.713.794,2.238,2.238,0,0,1-2.34-2.34,2.272,2.272,0,0,1,2.382-2.34,1.97,1.97,0,0,1,1.588.71l-.5.376a1.469,1.469,0,0,0-1.128-.543,1.69,1.69,0,0,0-1.713,1.8,1.658,1.658,0,0,0,1.672,1.8,1.486,1.486,0,0,0,1.212-.585Z" transform="translate(-321.599 -338.793)" fill="#00303f"/>
      <path id="Trazado_772" data-name="Trazado 772" d="M385.5,343.481a2.34,2.34,0,1,1,2.382-2.34,2.295,2.295,0,0,1-2.382,2.34Zm0-4.137a1.658,1.658,0,0,0-1.671,1.8,1.7,1.7,0,1,0,3.385,0A1.715,1.715,0,0,0,385.5,339.344Z" transform="translate(-329.461 -338.798)" fill="#00303f"/>
      <path id="Trazado_773" data-name="Trazado 773" d="M399.727,342.928h2.006v.543H399.1V339h.627Z" transform="translate(-338.717 -338.914)" fill="#00303f"/>
      <path id="Trazado_774" data-name="Trazado 774" d="M410.127,342.928h2.006v.543H409.5V339h.627Z" transform="translate(-344.771 -338.914)" fill="#00303f"/>
      <path id="Trazado_775" data-name="Trazado 775" d="M420.527,342.928h2.34v.543H419.9V339h2.883v.543h-2.257v1.337h2.089v.543h-2.089Z" transform="translate(-350.825 -338.914)" fill="#00303f"/>
      <path id="Trazado_776" data-name="Trazado 776" d="M434.95,342.682a2.048,2.048,0,0,1-1.713.794,2.238,2.238,0,0,1-2.34-2.34,2.272,2.272,0,0,1,2.382-2.34,1.97,1.97,0,0,1,1.588.71l-.5.376a1.469,1.469,0,0,0-1.128-.543,1.69,1.69,0,0,0-1.713,1.8,1.658,1.658,0,0,0,1.672,1.8,1.486,1.486,0,0,0,1.212-.585Z" transform="translate(-357.225 -338.793)" fill="#00303f"/>
      <path id="Trazado_777" data-name="Trazado 777" d="M445.748,343.471h-.627v-3.928H443.7V339h3.51v.543h-1.421v3.928Z" transform="translate(-364.68 -338.914)" fill="#00303f"/>
      <path id="Trazado_778" data-name="Trazado 778" d="M456.727,343.471H456.1V339h.627Z" transform="translate(-371.898 -338.914)" fill="#00303f"/>
      <path id="Trazado_779" data-name="Trazado 779" d="M464.8,343.481a2.34,2.34,0,1,1,2.382-2.34,2.272,2.272,0,0,1-2.382,2.34Zm0-4.137a1.658,1.658,0,0,0-1.672,1.8,1.7,1.7,0,1,0,1.672-1.8Z" transform="translate(-375.624 -338.798)" fill="#00303f"/>
      <path id="Trazado_780" data-name="Trazado 780" d="M481.476,342.594h0V339h.627v4.471h-.794l-2.382-3.636h0v3.636H478.3V339h.794Z" transform="translate(-384.821 -338.914)" fill="#00303f"/>
    </g>
  </g>
</svg>
