<svg id="Grupo_112" data-name="Grupo 112" xmlns="http://www.w3.org/2000/svg" xmlns:xlink="http://www.w3.org/1999/xlink" width="569.563" height="46.844" viewBox="0 0 569.563 46.844">
  <defs>
    <clipPath id="clip-path">
      <path id="Trazado_973" data-name="Trazado 973" d="M556.454,281.734a6.2,6.2,0,0,0-1.914,1.291,5.007,5.007,0,0,0-.956,1.549,4.279,4.279,0,0,0-.261,1.205c0,.947.522,1.377,1.479,1.377a1.768,1.768,0,0,0,.957-.258.947.947,0,0,0,.435-.861,1.911,1.911,0,0,0-.261-.861,2.99,2.99,0,0,1-.261-1.377,2.167,2.167,0,0,1,.173-.6,2.032,2.032,0,0,1,.522-.775,5.419,5.419,0,0,1,1.044-.689,5.132,5.132,0,0,1,1.827-.258,3.136,3.136,0,0,1,1.653.342,2.55,2.55,0,0,1,1.044.861,4.478,4.478,0,0,1,.609,1.291,7.516,7.516,0,0,1,.173,1.463,14.131,14.131,0,0,1-.173,2.066,6.187,6.187,0,0,1-.783,1.722,5.686,5.686,0,0,1-1.479,1.377,7.953,7.953,0,0,1-2.436.947,3.5,3.5,0,0,0-1.131.342c-.345.086-.609.171-.87.258a4.272,4.272,0,0,0-.609.258l-.522.258.261.517a6.1,6.1,0,0,1,1.827-.947,5.768,5.768,0,0,1,2.174-.342,4.389,4.389,0,0,1,2.262.517,3.55,3.55,0,0,1,1.392,1.377,7.069,7.069,0,0,1,.7,1.9,17.952,17.952,0,0,1,.173,2.152,13.417,13.417,0,0,1-.345,3.532,5.549,5.549,0,0,1-1.044,2.152,4.026,4.026,0,0,1-1.566,1.119,6.851,6.851,0,0,1-1.914.258,6.025,6.025,0,0,1-2.958-.6,5.077,5.077,0,0,1-1.827-1.377,6.216,6.216,0,0,1-.957-1.636c-.173-.517-.261-.947-.345-1.205l-.435.086a8,8,0,0,0,.609,1.894,5.36,5.36,0,0,0,1.218,1.636,5.884,5.884,0,0,0,1.914,1.119,8.989,8.989,0,0,0,2.784.431,8.358,8.358,0,0,0,3.305-.6A8.471,8.471,0,0,0,564.462,303a8.74,8.74,0,0,0,1.653-2.325,6.991,6.991,0,0,0,.609-2.583v-.086a5.487,5.487,0,0,0-.609-2.669,7.553,7.553,0,0,0-1.653-2.066,8.008,8.008,0,0,0-2.349-1.377,10.037,10.037,0,0,0-2.783-.6v-.086c.345-.086.957-.258,1.653-.431a12.446,12.446,0,0,0,2.174-1.033,6.886,6.886,0,0,0,1.914-1.636,3.822,3.822,0,0,0,.783-2.411,3.7,3.7,0,0,0-.345-1.636,5.046,5.046,0,0,0-1.131-1.636,4.833,4.833,0,0,0-1.914-1.205,6.972,6.972,0,0,0-2.783-.517c-1.479.517-2.436.689-3.219,1.033" transform="translate(-552.11 -280.7)" fill="#fff"/>
    </clipPath>
    <clipPath id="clip-path-2">
      <path id="Trazado_975" data-name="Trazado 975" d="M581,288.792a9.189,9.189,0,0,1-1.044.861,5.349,5.349,0,0,1-1.044.431,5.013,5.013,0,0,1-1.131.086A8.86,8.86,0,0,1,576.13,290a6.771,6.771,0,0,1-1.392-.6,10.559,10.559,0,0,1-1.218-.861l-1.044-1.033h-.87l-2.174,13.689.435.086c.087-.342.261-.689.435-1.205a4.126,4.126,0,0,1,.957-1.291,4.939,4.939,0,0,1,1.566-1.033,6.83,6.83,0,0,1,2.436-.431,4.575,4.575,0,0,1,2,.431,3.474,3.474,0,0,1,1.3,1.205,6.133,6.133,0,0,1,.7,1.894,21.149,21.149,0,0,1,.173,2.5,25.117,25.117,0,0,1-.261,3.96,6.027,6.027,0,0,1-.87,2.5,3.3,3.3,0,0,1-1.392,1.291,4.466,4.466,0,0,1-1.914.342,4.28,4.28,0,0,1-1.044-.086,2.624,2.624,0,0,1-.87-.342,1.878,1.878,0,0,1-.609-.775,2.528,2.528,0,0,1-.173-1.205v-1.033a1.106,1.106,0,0,0-.435-.947,1.487,1.487,0,0,0-1.131-.342,2.012,2.012,0,0,0-1.218.342,1.124,1.124,0,0,0-.522,1.033,2.952,2.952,0,0,0,.261,1.033,3.756,3.756,0,0,0,.87,1.291,4.5,4.5,0,0,0,1.653,1.033,8.023,8.023,0,0,0,2.7.431,7.613,7.613,0,0,0,3.827-.861,8.754,8.754,0,0,0,2.523-2.152,9.407,9.407,0,0,0,1.392-2.583,9.537,9.537,0,0,0,.435-2.325,8.926,8.926,0,0,0-.435-2.583,6.531,6.531,0,0,0-1.392-2.239,7.237,7.237,0,0,0-2.262-1.636,6.868,6.868,0,0,0-3.045-.6,6.388,6.388,0,0,0-3.045.6,4.85,4.85,0,0,0-2,1.722l-.087-.086,1.218-7.835a26.422,26.422,0,0,0,2.523,1.033,7.01,7.01,0,0,0,2.262.431,3.7,3.7,0,0,0,1.74-.342,5.39,5.39,0,0,0,1.479-.947A12.556,12.556,0,0,0,581,289.916c.522-.6,1.044-1.291,1.653-2.152l-.345-.258L581,288.8" transform="translate(-568.993 -287.502)" fill="#fff"/>
    </clipPath>
  </defs>
  <g id="Grupo_111" data-name="Grupo 111" transform="translate(0 0)">
    <g id="insignias_marival-collection_ao_35-aniv" transform="translate(0 0)">
      <g id="Grupo_98" data-name="Grupo 98" transform="translate(165.019)">
        <g id="Grupo_96" data-name="Grupo 96">
          <g id="Grupo_94" data-name="Grupo 94">
            <path id="Trazado_933" data-name="Trazado 933" d="M356.877,293.066l-.87-3.532h-4.436l-.87,3.532h-2L352.528,278h2.523l3.741,15.066Zm-2.958-13.258h0l-2,8.265h3.914Z" transform="translate(-348.7 -277.564)" fill="#fff"/>
            <path id="Trazado_934" data-name="Trazado 934" d="M366.08,293.066H362.6V278h3.479c3.654,0,5.741,2.669,5.741,7.576C371.821,290.4,369.646,293.066,366.08,293.066Zm0-13.431h-1.566v11.709h1.566c2.175,0,3.827-1.894,3.827-5.854-.087-3.958-1.74-5.854-3.827-5.854Z" transform="translate(-350.509 -277.564)" fill="#fff"/>
            <path id="Trazado_935" data-name="Trazado 935" d="M385.047,287.9c0,3.013-1.218,5.51-4.523,5.51-3.392,0-4.523-2.5-4.523-5.51V278h1.914v9.729c0,2.066.522,3.96,2.61,3.96s2.61-1.894,2.61-3.96V278h1.914Z" transform="translate(-352.252 -277.564)" fill="#fff"/>
            <path id="Trazado_936" data-name="Trazado 936" d="M390,293.066V278h1.914v13.258h4.263v1.808Z" transform="translate(-354.073 -277.564)" fill="#fff"/>
            <path id="Trazado_937" data-name="Trazado 937" d="M402.185,279.636v13.431h-1.914V279.636H397.4V278h7.742v1.636Z" transform="translate(-355.036 -277.564)" fill="#fff"/>
            <path id="Trazado_938" data-name="Trazado 938" d="M410.814,293.337a5.2,5.2,0,0,1-3.914-1.722l1.131-1.377a3.613,3.613,0,0,0,2.7,1.377,2.212,2.212,0,0,0,2.262-2.5c0-1.549-1.131-2.325-2.436-3.013-1.653-.775-3.045-1.894-3.045-4.3a3.973,3.973,0,0,1,4.087-4.3,4.179,4.179,0,0,1,3.392,1.463l-1.131,1.377a2.649,2.649,0,0,0-2.174-1.033,2.208,2.208,0,0,0-2.262,2.5c0,1.463,1.044,2.239,2.262,2.841,1.566.775,3.305,1.894,3.305,4.391A4.089,4.089,0,0,1,410.814,293.337Z" transform="translate(-356.272 -277.49)" fill="#fff"/>
          </g>
          <g id="Grupo_95" data-name="Grupo 95" transform="translate(0.087 21.018)">
            <path id="Trazado_939" data-name="Trazado 939" d="M354.019,317.745c-3.306,0-5.219-3.185-5.219-7.918s1.914-7.918,5.219-7.918c3.219,0,5.219,3.185,5.219,7.918S357.238,317.745,354.019,317.745Zm0-14.033c-2.175,0-3.219,2.755-3.219,6.2s1.044,6.2,3.219,6.2c2.088,0,3.132-2.755,3.132-6.2C357.151,306.381,356.11,303.712,354.019,303.712Z" transform="translate(-348.8 -301.909)" fill="#fff"/>
            <path id="Trazado_940" data-name="Trazado 940" d="M370.585,317.466l-4.872-11.709h-.087v11.709H363.8V302.4h2.349l4.785,11.709h.087V302.4h1.827v15.066Z" transform="translate(-350.751 -301.975)" fill="#fff"/>
            <path id="Trazado_941" data-name="Trazado 941" d="M378.1,317.466V302.4h1.914v13.258h4.263v1.808Z" transform="translate(-352.612 -301.975)" fill="#fff"/>
            <path id="Trazado_942" data-name="Trazado 942" d="M390.941,311.44v6.027h-1.914V311.44L385.2,302.4h2.088l2.61,7.06,2.7-7.06h2.088Z" transform="translate(-353.536 -301.975)" fill="#fff"/>
          </g>
        </g>
        <g id="Grupo_97" data-name="Grupo 97" transform="translate(0.087 43.653)">
          <path id="Trazado_943" data-name="Trazado 943" d="M349.235,331.327H348.8l1.3-2.927h.345l1.3,2.927h-.435l-.261-.689h-1.392Zm.435-1.119H350.8l-.522-1.377Z" transform="translate(-348.8 -328.226)" fill="#fff"/>
          <path id="Trazado_944" data-name="Trazado 944" d="M353.335,330.983h1.3v.342H352.9V328.4h.435Z" transform="translate(-349.333 -328.226)" fill="#fff"/>
          <path id="Trazado_945" data-name="Trazado 945" d="M356.235,330.983h1.3v.342H355.8V328.4h.435Z" transform="translate(-349.711 -328.226)" fill="#fff"/>
          <path id="Trazado_946" data-name="Trazado 946" d="M359.457,330.742H358.5V330.4h.957Z" transform="translate(-350.062 -328.504)" fill="#fff"/>
          <path id="Trazado_947" data-name="Trazado 947" d="M361.035,331.327H360.6V328.4h.435Z" transform="translate(-350.335 -328.226)" fill="#fff"/>
          <path id="Trazado_948" data-name="Trazado 948" d="M364.388,330.725h0V328.4h.435v2.927H364.3l-1.566-2.411h0v2.411H362.3V328.4h.522Z" transform="translate(-350.556 -328.226)" fill="#fff"/>
          <path id="Trazado_949" data-name="Trazado 949" d="M368.9,330.881a1.3,1.3,0,0,1-1.131.517,1.55,1.55,0,1,1,0-3.1,1.31,1.31,0,0,1,1.044.431l-.345.258a1.078,1.078,0,0,0-.7-.342,1.208,1.208,0,0,0,0,2.411,1.108,1.108,0,0,0,.783-.342Z" transform="translate(-351.064 -328.21)" fill="#fff"/>
          <path id="Trazado_950" data-name="Trazado 950" d="M370.535,330.983h1.3v.342H370.1V328.4h.435Z" transform="translate(-351.572 -328.226)" fill="#fff"/>
          <path id="Trazado_951" data-name="Trazado 951" d="M373,330.208V328.4h.435v1.808c0,.431.173.775.7.775a.707.707,0,0,0,.522-.234.693.693,0,0,0,.173-.541V328.4h.435v1.808a1.032,1.032,0,0,1-.3.819,1.055,1.055,0,0,1-.827.3A1,1,0,0,1,373,330.208Z" transform="translate(-351.949 -328.226)" fill="#fff"/>
          <path id="Trazado_952" data-name="Trazado 952" d="M378.24,328.887a.681.681,0,0,0-.609-.258.574.574,0,0,0-.609.517c0,.342.261.431.609.517.435.086.87.258.87.861s-.522.861-1.044.861a1.252,1.252,0,0,1-.957-.431l.345-.258a.907.907,0,0,0,.7.342.574.574,0,0,0,.609-.517c0-.342-.345-.431-.7-.6a.854.854,0,0,1-.783-.861c0-.6.522-.861,1.044-.861a1.337,1.337,0,0,1,.87.342Z" transform="translate(-352.404 -328.196)" fill="#fff"/>
          <path id="Trazado_953" data-name="Trazado 953" d="M380.335,331.327H379.9V328.4h.435Z" transform="translate(-352.846 -328.226)" fill="#fff"/>
          <path id="Trazado_954" data-name="Trazado 954" d="M382.3,330.811h0l.87-2.411h.435l-1.131,2.927h-.345L381,328.4h.435Z" transform="translate(-352.989 -328.226)" fill="#fff"/>
          <path id="Trazado_955" data-name="Trazado 955" d="M385.145,330.983h1.566v.342H384.8V328.4h1.914v.342h-1.479v.861h1.392v.342h-1.392v1.033Z" transform="translate(-353.484 -328.226)" fill="#fff"/>
          <path id="Trazado_956" data-name="Trazado 956" d="M390.035,331.327H389.6V328.4h.957c.609,0,1.044.171,1.044.775a.756.756,0,0,1-.7.775l.783,1.377h-.522l-.783-1.291h-.438v1.291Zm0-1.636h.435c.345,0,.7-.086.7-.431s-.345-.431-.7-.431h-.525v.861Z" transform="translate(-354.109 -328.226)" fill="#fff"/>
          <path id="Trazado_957" data-name="Trazado 957" d="M393.345,330.983h1.566v.342H393V328.4h1.914v.342h-1.479v.861h1.392v.342h-1.392v1.033Z" transform="translate(-354.551 -328.226)" fill="#fff"/>
          <path id="Trazado_958" data-name="Trazado 958" d="M397.639,328.887a.681.681,0,0,0-.609-.258.574.574,0,0,0-.609.517c0,.342.261.431.609.517.435.086.87.258.87.861s-.522.861-1.044.861a1.252,1.252,0,0,1-.957-.431l.345-.258a.907.907,0,0,0,.7.342.574.574,0,0,0,.609-.517c0-.342-.345-.431-.7-.6a.854.854,0,0,1-.783-.861c0-.6.522-.861,1.044-.861a1.337,1.337,0,0,1,.87.342Z" transform="translate(-354.928 -328.196)" fill="#fff"/>
          <path id="Trazado_959" data-name="Trazado 959" d="M400.666,331.4a1.55,1.55,0,1,1,1.565-1.549,1.484,1.484,0,0,1-.44,1.114,1.516,1.516,0,0,1-1.125.436Zm0-2.755a1.224,1.224,0,0,0-1.191.682,1.2,1.2,0,0,0,.206,1.346,1.23,1.23,0,0,0,1.341.3,1.209,1.209,0,0,0,.775-1.125,1.15,1.15,0,0,0-.31-.838,1.174,1.174,0,0,0-.821-.37Z" transform="translate(-355.345 -328.212)" fill="#fff"/>
          <path id="Trazado_960" data-name="Trazado 960" d="M404.135,331.327H403.7V328.4h.957c.609,0,1.044.171,1.044.775a.756.756,0,0,1-.7.775l.783,1.377h-.522l-.783-1.291h-.437v1.291Zm0-1.636h.435c.345,0,.7-.086.7-.431s-.345-.431-.7-.431h-.525v.861Z" transform="translate(-355.943 -328.226)" fill="#fff"/>
          <path id="Trazado_961" data-name="Trazado 961" d="M408.092,331.327h-.435v-2.586H406.7V328.4h2.262v.342H408v2.583Z" transform="translate(-356.333 -328.226)" fill="#fff"/>
        </g>
      </g>
      <g id="Grupo_110" data-name="Grupo 110" transform="translate(0 0.264)">
        <g id="Grupo_103" data-name="Grupo 103" transform="translate(0 9.384)">
          <g id="Grupo_102" data-name="Grupo 102" transform="translate(0 0)">
            <g id="Grupo_101" data-name="Grupo 101">
              <g id="Grupo_99" data-name="Grupo 99" transform="translate(0.608 20.66)">
                <path id="Trazado_962" data-name="Trazado 962" d="M146.572,315.022a2.611,2.611,0,0,0-2-.947,3.124,3.124,0,0,0-2.286.96,3.058,3.058,0,0,0-.846,2.311,2.98,2.98,0,0,0,3.045,3.271,2.65,2.65,0,0,0,2.174-1.033l1.3.861a4.293,4.293,0,0,1-3.48,1.549,4.652,4.652,0,1,1,.087-9.3,4.117,4.117,0,0,1,3.219,1.377Z" transform="translate(-139.699 -312.695)" fill="#fff"/>
                <path id="Trazado_963" data-name="Trazado 963" d="M160.385,312.7a4.651,4.651,0,1,1-4.785,4.649A4.475,4.475,0,0,1,160.385,312.7Zm0,7.918a3.124,3.124,0,0,0,2.286-.96,3.057,3.057,0,0,0,.846-2.311,3.09,3.09,0,0,0-3.132-3.271,3.28,3.28,0,0,0,0,6.543Z" transform="translate(-141.768 -312.697)" fill="#fff"/>
                <path id="Trazado_964" data-name="Trazado 964" d="M174.3,313h1.566v7.49h3.827v1.377H174.3Z" transform="translate(-144.201 -312.739)" fill="#fff"/>
                <path id="Trazado_965" data-name="Trazado 965" d="M187.5,313h1.566v7.49h3.827v1.377H187.5Z" transform="translate(-145.919 -312.739)" fill="#fff"/>
                <path id="Trazado_966" data-name="Trazado 966" d="M200.8,313h5.915v1.377h-4.35v2.239h4.086v1.291h-4.086v2.5h4.61v1.377H200.8Z" transform="translate(-147.649 -312.739)" fill="#fff"/>
                <path id="Trazado_967" data-name="Trazado 967" d="M221.672,315.022a2.611,2.611,0,0,0-2-.947,3.124,3.124,0,0,0-2.286.96,3.058,3.058,0,0,0-.846,2.311,2.98,2.98,0,0,0,3.045,3.271,2.65,2.65,0,0,0,2.174-1.033l1.3.861a4.293,4.293,0,0,1-3.48,1.549,4.652,4.652,0,1,1,.087-9.3,4.117,4.117,0,0,1,3.219,1.377Z" transform="translate(-149.47 -312.695)" fill="#fff"/>
                <path id="Trazado_968" data-name="Trazado 968" d="M232.883,314.377H230.1V313h7.046v1.377h-2.783v7.49H232.8v-7.49Z" transform="translate(-151.461 -312.739)" fill="#fff"/>
                <path id="Trazado_969" data-name="Trazado 969" d="M245.3,313h1.566v8.868H245.3Z" transform="translate(-153.439 -312.739)" fill="#fff"/>
                <path id="Trazado_970" data-name="Trazado 970" d="M259.585,312.7a4.651,4.651,0,1,1-4.785,4.649A4.476,4.476,0,0,1,259.585,312.7Zm0,7.918a3.124,3.124,0,0,0,2.286-.96,3.057,3.057,0,0,0,.845-2.311,3.09,3.09,0,0,0-3.132-3.271,3.28,3.28,0,0,0,0,6.543Z" transform="translate(-154.675 -312.697)" fill="#fff"/>
                <path id="Trazado_971" data-name="Trazado 971" d="M273.4,313h2.088l4.176,6.629h0V313h1.564v8.868h-2l-4.263-6.887h0v6.887H273.4Z" transform="translate(-157.094 -312.739)" fill="#fff"/>
              </g>
              <g id="Grupo_100" data-name="Grupo 100">
                <path id="XMLID_00000029745781962320738850000003474259303120681144_" d="M147.438,292.157l-2.958,7.405h-.345l-3.045-7.49v7.146c0,.342.173.431.173.431H139s.173-.086.173-.431v-9.987c0-.342-.087-.431-.087-.431h2.262l2.958,7.918,2.958-7.918h2.174s-.173.086-.173.431v9.9a.429.429,0,0,0,.261.431h-2.349s.173-.086.173-.431Z" transform="translate(-139 -288.714)" fill="#fff"/>
                <path id="XMLID_00000157278678462686935980000005105311271295977377_" d="M172.151,299.734l-1.479-3.96a6.022,6.022,0,0,0-3.827,1.894l-.7,2.066H163.8s.261-.086.435-.6l4-10.332h1.74l4,10.418c.173.431.261.6.261.6h-2.088Zm-5.045-4.133a10.881,10.881,0,0,1,3.132-.947l-1.044-2.5-.173-1.033-.173,1.033-1.044,2.927Z" transform="translate(-142.227 -288.714)" fill="#fff"/>
                <path id="XMLID_00000025431051241704451580000002154287499802473388_" d="M194.911,299.2l-3.219-4.649H190.3V299.2c0,.431.261.431.261.431H188.3s.087,0,.087-.431v-9.987a1.858,1.858,0,0,0-.087-.517h3.827c1.827,0,3.827.775,3.827,2.927a2.9,2.9,0,0,1-2.262,2.669l4,5.424h-2.871A.381.381,0,0,0,194.911,299.2Zm-.87-7.576c0-1.463-1.218-1.636-1.914-1.636H190.3v3.357h1.827a1.766,1.766,0,0,0,1.339-.444A1.728,1.728,0,0,0,194.041,291.627Z" transform="translate(-145.414 -288.7)" fill="#fff"/>
                <path id="XMLID_00000003064330388560848490000012645055639754963889_" d="M212.4,299.734s.087-.086.087-.775v-9.385a2.038,2.038,0,0,0-.087-.775h2.088a4.715,4.715,0,0,0-.087.775v9.384a3.515,3.515,0,0,0,.087.775Z" transform="translate(-148.55 -288.714)" fill="#fff"/>
                <path id="XMLID_00000150806197945465517490000005073361222216576687_" d="M238.039,288.8a.843.843,0,0,0-.435.517l-3.827,10.332h-1.914l-3.828-10.331a.644.644,0,0,0-.435-.517h2.436l2.7,7.747.087,1.119.087-1.205,2.871-7.662Z" transform="translate(-150.528 -288.713)" fill="#fff"/>
                <path id="XMLID_00000009584796840292593880000002869249994233064600_" d="M259.351,299.734l-1.479-3.96a6.022,6.022,0,0,0-3.828,1.894l-.7,2.066H251s.261-.086.435-.6l4-10.332h1.74l4,10.418c.173.431.261.6.261.6h-2.088Zm-5.045-4.133a10.881,10.881,0,0,1,3.132-.947l-1.044-2.5-.173-1.033-.173,1.033L255,295.085Z" transform="translate(-153.572 -288.714)" fill="#fff"/>
                <path id="XMLID_00000098922622019781821440000005976116471016708777_" d="M277.774,288.8a1.9,1.9,0,0,0-.173.775v8.868l4.523-.086a1.463,1.463,0,0,0,.783-.258v1.636H275.6a2.037,2.037,0,0,0,.087-.775v-9.385a2.037,2.037,0,0,0-.087-.775h2.175Z" transform="translate(-156.772 -288.714)" fill="#fff"/>
              </g>
            </g>
          </g>
        </g>
        <g id="Grupo_109" data-name="Grupo 109" transform="translate(266.448)">
          <g id="Grupo_105" data-name="Grupo 105" transform="translate(60.724 2.497)">
            <path id="Trazado_972" data-name="Trazado 972" d="M556.454,281.734a6.2,6.2,0,0,0-1.914,1.291,5.007,5.007,0,0,0-.956,1.549,4.279,4.279,0,0,0-.261,1.205c0,.947.522,1.377,1.479,1.377a1.768,1.768,0,0,0,.957-.258.947.947,0,0,0,.435-.861,1.911,1.911,0,0,0-.261-.861,2.99,2.99,0,0,1-.261-1.377,2.167,2.167,0,0,1,.173-.6,2.032,2.032,0,0,1,.522-.775,5.419,5.419,0,0,1,1.044-.689,5.132,5.132,0,0,1,1.827-.258,3.136,3.136,0,0,1,1.653.342,2.55,2.55,0,0,1,1.044.861,4.478,4.478,0,0,1,.609,1.291,7.516,7.516,0,0,1,.173,1.463,14.131,14.131,0,0,1-.173,2.066,6.187,6.187,0,0,1-.783,1.722,5.686,5.686,0,0,1-1.479,1.377,7.953,7.953,0,0,1-2.436.947,3.5,3.5,0,0,0-1.131.342c-.345.086-.609.171-.87.258a4.272,4.272,0,0,0-.609.258l-.522.258.261.517a6.1,6.1,0,0,1,1.827-.947,5.768,5.768,0,0,1,2.174-.342,4.389,4.389,0,0,1,2.262.517,3.55,3.55,0,0,1,1.392,1.377,7.069,7.069,0,0,1,.7,1.9,17.952,17.952,0,0,1,.173,2.152,13.417,13.417,0,0,1-.345,3.532,5.549,5.549,0,0,1-1.044,2.152,4.026,4.026,0,0,1-1.566,1.119,6.851,6.851,0,0,1-1.914.258,6.025,6.025,0,0,1-2.958-.6,5.077,5.077,0,0,1-1.827-1.377,6.216,6.216,0,0,1-.957-1.636c-.173-.517-.261-.947-.345-1.205l-.435.086a8,8,0,0,0,.609,1.894,5.36,5.36,0,0,0,1.218,1.636,5.884,5.884,0,0,0,1.914,1.119,8.989,8.989,0,0,0,2.784.431,8.358,8.358,0,0,0,3.305-.6A8.471,8.471,0,0,0,564.462,303a8.74,8.74,0,0,0,1.653-2.325,6.991,6.991,0,0,0,.609-2.583v-.086a5.487,5.487,0,0,0-.609-2.669,7.553,7.553,0,0,0-1.653-2.066,8.008,8.008,0,0,0-2.349-1.377,10.037,10.037,0,0,0-2.783-.6v-.086c.345-.086.957-.258,1.653-.431a12.446,12.446,0,0,0,2.174-1.033,6.886,6.886,0,0,0,1.914-1.636,3.822,3.822,0,0,0,.783-2.411,3.7,3.7,0,0,0-.345-1.636,5.046,5.046,0,0,0-1.131-1.636,4.833,4.833,0,0,0-1.914-1.205,6.972,6.972,0,0,0-2.783-.517c-1.479.517-2.436.689-3.219,1.033" transform="translate(-552.11 -280.7)" fill="#fff"/>
            <g id="Grupo_104" data-name="Grupo 104" transform="translate(0 0)" clip-path="url(#clip-path)">
              <rect id="Rectángulo_166" data-name="Rectángulo 166" width="14.614" height="24.365" transform="translate(-0.267 0.516)" fill="#fff"/>
            </g>
          </g>
          <g id="Grupo_107" data-name="Grupo 107" transform="translate(75.415 8.352)">
            <path id="Trazado_974" data-name="Trazado 974" d="M581,288.792a9.189,9.189,0,0,1-1.044.861,5.349,5.349,0,0,1-1.044.431,5.013,5.013,0,0,1-1.131.086A8.86,8.86,0,0,1,576.13,290a6.771,6.771,0,0,1-1.392-.6,10.559,10.559,0,0,1-1.218-.861l-1.044-1.033h-.87l-2.174,13.689.435.086c.087-.342.261-.689.435-1.205a4.126,4.126,0,0,1,.957-1.291,4.939,4.939,0,0,1,1.566-1.033,6.83,6.83,0,0,1,2.436-.431,4.575,4.575,0,0,1,2,.431,3.474,3.474,0,0,1,1.3,1.205,6.133,6.133,0,0,1,.7,1.894,21.149,21.149,0,0,1,.173,2.5,25.117,25.117,0,0,1-.261,3.96,6.027,6.027,0,0,1-.87,2.5,3.3,3.3,0,0,1-1.392,1.291,4.466,4.466,0,0,1-1.914.342,4.28,4.28,0,0,1-1.044-.086,2.624,2.624,0,0,1-.87-.342,1.878,1.878,0,0,1-.609-.775,2.528,2.528,0,0,1-.173-1.205v-1.033a1.106,1.106,0,0,0-.435-.947,1.487,1.487,0,0,0-1.131-.342,2.012,2.012,0,0,0-1.218.342,1.124,1.124,0,0,0-.522,1.033,2.952,2.952,0,0,0,.261,1.033,3.756,3.756,0,0,0,.87,1.291,4.5,4.5,0,0,0,1.653,1.033,8.023,8.023,0,0,0,2.7.431,7.613,7.613,0,0,0,3.827-.861,8.754,8.754,0,0,0,2.523-2.152,9.407,9.407,0,0,0,1.392-2.583,9.537,9.537,0,0,0,.435-2.325,8.926,8.926,0,0,0-.435-2.583,6.531,6.531,0,0,0-1.392-2.239,7.237,7.237,0,0,0-2.262-1.636,6.868,6.868,0,0,0-3.045-.6,6.388,6.388,0,0,0-3.045.6,4.85,4.85,0,0,0-2,1.722l-.087-.086,1.218-7.835a26.422,26.422,0,0,0,2.523,1.033,7.01,7.01,0,0,0,2.262.431,3.7,3.7,0,0,0,1.74-.342,5.39,5.39,0,0,0,1.479-.947A12.556,12.556,0,0,0,581,289.916c.522-.6,1.044-1.291,1.653-2.152l-.345-.258L581,288.8" transform="translate(-568.993 -287.502)" fill="#fff"/>
            <g id="Grupo_106" data-name="Grupo 106" transform="translate(0 0)" clip-path="url(#clip-path-2)">
              <rect id="Rectángulo_167" data-name="Rectángulo 167" width="13.658" height="24.365" transform="translate(-0.083 -0.087)" fill="#fff"/>
            </g>
          </g>
          <path id="Trazado_976" data-name="Trazado 976" d="M548.819,326.421,545.6,321.6h1.479l2.262,3.7,2.436-3.7h1.392l-3.219,4.821v3.616h-1.131Z" transform="translate(-490.536 -283.891)" fill="#fff"/>
          <path id="Trazado_977" data-name="Trazado 977" d="M556.5,321.6h5.481v1.033h-4.35v2.5h4.087v1.119h-4.087v2.669h4.523v1.119H556.5Z" transform="translate(-491.954 -283.891)" fill="#fff"/>
          <path id="Trazado_978" data-name="Trazado 978" d="M568.554,321.6H569.6l3.654,8.437h-1.3l-.87-2.066h-4l-.87,2.066H564.9Zm2.088,5.338-1.566-3.874h0l-1.565,3.874Z" transform="translate(-493.047 -283.891)" fill="#fff"/>
          <g id="Grupo_108" data-name="Grupo 108">
            <path id="Trazado_979" data-name="Trazado 979" d="M576.773,321.6h2.958a2.931,2.931,0,0,1,1.3.258,7.679,7.679,0,0,1,.87.517,3.481,3.481,0,0,1,.435.775,2.364,2.364,0,0,1,.087.775,2.5,2.5,0,0,1-.173.775,1.873,1.873,0,0,1-.435.689,4.818,4.818,0,0,1-.7.517,1.48,1.48,0,0,1-.87.258l2.436,3.874H581.21l-2.175-3.7h-1.3v3.7H576.6V321.6Zm1.218,3.7h1.479a1.933,1.933,0,0,0,.7-.086,1.265,1.265,0,0,0,.609-.171,1.043,1.043,0,0,0,.435-.431,1.45,1.45,0,0,0,0-1.377,1.043,1.043,0,0,0-.435-.431,1.266,1.266,0,0,0-.609-.171c-.261,0-.435-.086-.7-.086h-1.479Z" transform="translate(-494.569 -283.889)" fill="#fff"/>
            <path id="Trazado_980" data-name="Trazado 980" d="M586.47,328.188a1.53,1.53,0,0,0,.783.689,2.334,2.334,0,0,0,1.044.258,1.715,1.715,0,0,0,.609-.086l.522-.258c.173-.086.261-.258.435-.431a1.234,1.234,0,0,0,.173-.6.835.835,0,0,0-.345-.775,1.685,1.685,0,0,0-.783-.431c-.345-.086-.609-.258-1.044-.342a5.352,5.352,0,0,1-1.044-.431,1.7,1.7,0,0,1-.783-.775,2.829,2.829,0,0,1-.345-1.291,2.493,2.493,0,0,1,.173-.775,2.032,2.032,0,0,1,.522-.775,3.126,3.126,0,0,1,.87-.6,2.932,2.932,0,0,1,1.3-.258,6.791,6.791,0,0,1,1.3.171,1.934,1.934,0,0,1,1.131.775l-.957.861a1.166,1.166,0,0,0-.609-.517,1.443,1.443,0,0,0-.87-.171,1.95,1.95,0,0,0-.783.086,1.821,1.821,0,0,0-.522.342c-.087.171-.261.258-.261.431a.771.771,0,0,0-.087.431,1.1,1.1,0,0,0,.346.861,1.686,1.686,0,0,0,.783.431c.345.086.609.258,1.044.342a5.353,5.353,0,0,1,1.044.431,2.048,2.048,0,0,1,.783.689,2.211,2.211,0,0,1,.345,1.205,2.362,2.362,0,0,1-.261,1.119,3.094,3.094,0,0,1-.609.861,2.079,2.079,0,0,1-.957.517,5.139,5.139,0,0,1-1.131.171,4.972,4.972,0,0,1-1.565-.258,2.331,2.331,0,0,1-1.13-.86Z" transform="translate(-495.74 -283.85)" fill="#fff"/>
            <path id="Trazado_981" data-name="Trazado 981" d="M560.14,309.138H545.7V277.8h10.526v.689H546.4v30.047H560.14Z" transform="translate(-490.548 -277.8)" fill="#fff"/>
            <path id="Trazado_982" data-name="Trazado 982" d="M588.771,303.668h-3.392v-.258h3.045V282.058H573.2V281.8h15.571Z" transform="translate(-494.126 -278.356)" fill="#fff"/>
            <path id="Trazado_983" data-name="Trazado 983" d="M605.875,296.359a.867.867,0,0,0-.435-.342,1.114,1.114,0,0,0-.522-.086,1.5,1.5,0,0,0-.609.086.867.867,0,0,0-.435.342,2.858,2.858,0,0,0-.261.517,1.266,1.266,0,0,0-.087.6,1.083,1.083,0,0,0,.087.517,1.874,1.874,0,0,0,.261.431.867.867,0,0,0,.435.342,1.3,1.3,0,0,0,.609.086,1.625,1.625,0,0,0,.609-.171,1.524,1.524,0,0,0,.435-.342l.435.342-.173.171-.261.258a.668.668,0,0,1-.435.171,1.3,1.3,0,0,1-.609.086,2.563,2.563,0,0,1-.783-.171,1.561,1.561,0,0,1-.609-.431,2.15,2.15,0,0,1-.345-.6,2.008,2.008,0,0,1-.173-.689,2.491,2.491,0,0,1,.173-.775,2.264,2.264,0,0,1,1.044-1.033,2.564,2.564,0,0,1,.783-.171,1.653,1.653,0,0,1,.7.171,2.648,2.648,0,0,1,.609.431Z" transform="translate(-498.008 -280.26)" fill="#fff"/>
            <path id="Trazado_984" data-name="Trazado 984" d="M610.4,295.5h1.3a1.3,1.3,0,0,1,.609.086,1.2,1.2,0,0,1,.345.258.446.446,0,0,1,.173.342c0,.086.087.258.087.342a.514.514,0,0,1-.087.342c0,.086-.087.171-.173.258l-.261.258a.527.527,0,0,1-.345.086L613.1,299.2h-.609l-.957-1.636h-.609V299.2H610.4Zm.522,1.636h.957c.087,0,.173-.086.261-.086a.186.186,0,0,0,.173-.171c0-.086.087-.171.087-.342a.514.514,0,0,0-.087-.342c-.087-.086-.087-.171-.173-.171s-.173-.086-.261-.086h-.957Z" transform="translate(-498.967 -280.257)" fill="#fff"/>
            <path id="Trazado_985" data-name="Trazado 985" d="M616.9,295.5h2.436v.517h-1.914v1.119h1.827v.431h-1.827v1.205h2v.431H616.9Z" transform="translate(-499.812 -280.262)" fill="#fff"/>
            <path id="Trazado_986" data-name="Trazado 986" d="M624.553,295.5h.435l1.566,3.7h-.609l-.345-.947h-1.74l-.345.947H622.9Zm.957,2.411-.7-1.722h0l-.7,1.722Z" transform="translate(-500.593 -280.262)" fill="#fff"/>
            <path id="Trazado_987" data-name="Trazado 987" d="M630.718,296.017H629.5V295.5h2.958v.517H631.24V299.2h-.522Z" transform="translate(-501.452 -280.262)" fill="#fff"/>
            <rect id="Rectángulo_168" data-name="Rectángulo 168" width="0.522" height="3.702" transform="translate(133.964 15.238)" fill="#fff"/>
            <path id="Trazado_988" data-name="Trazado 988" d="M640.8,295.5h.7l2.088,3.1h0v-3.1h.522v3.7h-.7l-2.088-3.013h0V299.2H640.8Z" transform="translate(-502.922 -280.262)" fill="#fff"/>
            <path id="Trazado_989" data-name="Trazado 989" d="M651.588,297.1v1.808c-.087.086-.173.086-.345.171-.087,0-.261.086-.345.086s-.261.086-.345.086h-.345a2.6,2.6,0,0,1-.87-.171,1.561,1.561,0,0,1-.609-.431,3.647,3.647,0,0,1-.435-.6,1.813,1.813,0,0,1,0-1.549,2.265,2.265,0,0,1,1.044-1.033,2.561,2.561,0,0,1,.783-.171,2.708,2.708,0,0,1,.87.086.8.8,0,0,1,.522.342l-.345.342a1.825,1.825,0,0,0-.522-.342,1.115,1.115,0,0,0-.522-.086,1.494,1.494,0,0,0-.609.086.867.867,0,0,0-.435.342c-.087.171-.261.258-.261.431a1.265,1.265,0,0,0-.087.6,1.45,1.45,0,0,0,.087.6,2.511,2.511,0,0,0,.783.775,1.3,1.3,0,0,0,.609.086,1.114,1.114,0,0,0,.522-.086c.173,0,.261-.086.435-.171v-.689h-.87v-.431h1.3Z" transform="translate(-503.88 -280.23)" fill="#fff"/>
            <path id="Trazado_990" data-name="Trazado 990" d="M605.285,307.633c-1.565,1.722-2.349,2.841-2.349,3.185,0,.171.7-.258.7-.171a1.842,1.842,0,0,1-1.131.6.394.394,0,0,1-.345-.431c0-1.463,6-8.523,6-10.159,0-.517-.522-.6-.957-.6-3.305,0-8.7,5.424-8.7,6.2,0,.171.087.171.261.171.087,0,.435-.086.609-.086a2.017,2.017,0,0,1-.957.342.6.6,0,0,1-.435-.172.585.585,0,0,1-.174-.431c0-1.894,5.915-6.285,9.482-6.285,1.131,0,1.74.517,1.74,1.463,0,1.119-1.914,3.874-3.48,5.94,3.392-3.7,6.35-5.854,6.872-5.854a1.182,1.182,0,0,1,1.037.864.321.321,0,0,0-.261-.086c-.435,0-3.392,4.219-4.61,6.8,2.349-3.96,7.828-8.093,8.612-8.093a1.227,1.227,0,0,1,.956.861.527.527,0,0,0-.345-.086c-1.044,0-5.828,5.941-5.828,8.523,0,1.119.522,1.549,1.74,1.549a7.871,7.871,0,0,0,3.654-1.377,6.477,6.477,0,0,1-3.654,1.636h-.345a1.974,1.974,0,0,1-1.517-.565,1.932,1.932,0,0,1-.571-1.5c0-2.239,2.349-5.682,3.305-6.629-1.653.775-6.176,5.51-6.176,6.629,0,.258-.783-.171-.783-.689,0-1.205,2.7-5.682,3.569-6.543a28.043,28.043,0,0,0-5.915,4.993" transform="translate(-497.331 -280.858)" fill="#fff"/>
            <path id="Trazado_991" data-name="Trazado 991" d="M617.142,309.688c0,.171.087.258.345.258.87,0,2.958-1.636,4.176-2.583a.086.086,0,0,1,.062.025.083.083,0,0,1,.025.061c-.87.775-3.219,3.013-4.785,3.013-.345,0-.87-.431-.87-.689a2.489,2.489,0,0,1,.173-.775,4.921,4.921,0,0,1,1.653-1.98,4.7,4.7,0,0,1,2.523-1.119c.173,0,.7.258.7.6,0,.689-2.262,2.411-3.569,2.411a.986.986,0,0,0-.435.775m.609-1.205c1.044-.086,2.958-1.98,3.045-2.411a6.933,6.933,0,0,0-3.045,2.411" transform="translate(-499.706 -281.708)" fill="#fff"/>
            <path id="Trazado_992" data-name="Trazado 992" d="M625.933,309.641c0-.689,1.3-2.583,1.914-3.185-2.088,1.463-3.306,3.444-3.654,3.444a.757.757,0,0,1-.522-.6,7.071,7.071,0,0,1,1.653-2.841,13.761,13.761,0,0,0-3.132,2.755c-.173.258-.345.342-.435.517-.345.342-.345.6-.173.689-.345.086-.7-.258-.783-.6a1.662,1.662,0,0,1,.345-.947,21.762,21.762,0,0,1,1.827-2.755l.435-.431c.087-.086.087-.086.173-.086a.929.929,0,0,1,.7.775c0,.086-.087,0-.173,0a.8.8,0,0,0-.435.258,29.194,29.194,0,0,0-1.827,2.5,20.35,20.35,0,0,1,3.741-3.357h.087c.261,0,.609.6.522.689a8.542,8.542,0,0,0-1.653,2.669c1.131-1.377,3.305-3.532,3.828-3.532.261,0,.609.6.522.775a14.053,14.053,0,0,0-2.087,3.271c.783-.171,2.436-1.808,3.218-2.5.087-.086.173,0,.087.086-1.044,1.119-2.958,3.013-3.654,3.013-.173.086-.522-.342-.522-.6" transform="translate(-500.321 -281.663)" fill="#fff"/>
            <path id="Trazado_993" data-name="Trazado 993" d="M634.574,305.831c-2.088,0-4.523,3.874-3.914,4.219.7.258,2.349-1.549,3.132-2.755a.7.7,0,0,1-.087-.6,1.446,1.446,0,0,1,.522-.517.882.882,0,0,1,.261.086,1.181,1.181,0,0,0,.956.6,3.283,3.283,0,0,0,1.3-.517,2.076,2.076,0,0,1-1.131.689,2.183,2.183,0,0,1-.7.086c-.173,0-.261,0-.345-.086a4.888,4.888,0,0,1-4,3.1.943.943,0,0,1-.87-.947c0-1.894,2.523-3.788,4.436-3.788.435,0,.609.086.7.171h0c-.087.342-.173.258-.261.258" transform="translate(-501.481 -281.638)" fill="#fff"/>
            <path id="Trazado_994" data-name="Trazado 994" d="M637.6,305.786c.087-.086.087-.086.173-.086a.929.929,0,0,1,.7.775c0,.086,0,0-.087,0-.173,0-.609.431-.956.861a13.117,13.117,0,0,0-.957,1.377,15.751,15.751,0,0,1,2.783-2.5,1.922,1.922,0,0,1,1.044-.517c.087,0,.609.517.522.6a8.58,8.58,0,0,0-1.653,1.98,5.358,5.358,0,0,0,2.088-1.205h.087a5.151,5.151,0,0,1-2.436,1.549c-.173,0-.522-.431-.522-.517a2.6,2.6,0,0,1,.7-1.377,9.066,9.066,0,0,0-2.436,1.98c-.609.6-1.3,1.636-1.044,1.808-.345.086-.609-.258-.7-.6a1.053,1.053,0,0,1,.173-.6,9.493,9.493,0,0,1,1.3-2.152,6.574,6.574,0,0,1,1.218-1.377" transform="translate(-502.153 -281.679)" fill="#fff"/>
            <path id="Trazado_995" data-name="Trazado 995" d="M640.822,310.085c-.173-.086-.522-.342-.522-.517,0-.689,1.74-3.185,2.436-3.788.087-.086.087-.086.173-.086a.929.929,0,0,1,.7.775c0,.086-.087,0-.173,0-.522-.086-2.088,2.583-2.262,3.1.7-.171,2.436-1.808,3.132-2.5.087-.086.173,0,.087.086-1.044,1.119-2.871,3.013-3.569,3.013.087-.086.087-.086,0-.086m3.914-5.854c.087.086.173.258.087.258,0,0-.087-.086-.261,0a3.523,3.523,0,0,0-.87.775c-.173.171-.435,0-.435-.258a1.88,1.88,0,0,1,.7-1.205,1.688,1.688,0,0,1,.783.431" transform="translate(-502.857 -281.416)" fill="#fff"/>
            <path id="Trazado_996" data-name="Trazado 996" d="M644.443,309.688c0,.171.087.258.345.258.87,0,2.958-1.636,4.176-2.583a.086.086,0,0,1,.062.025.084.084,0,0,1,.025.061c-.87.775-3.219,3.013-4.784,3.013-.345,0-.87-.431-.87-.689a2.487,2.487,0,0,1,.173-.775,4.921,4.921,0,0,1,1.653-1.98,4.7,4.7,0,0,1,2.523-1.119c.173,0,.7.258.7.6,0,.689-2.262,2.411-3.568,2.411a.986.986,0,0,0-.435.775m.609-1.205c1.044-.086,2.958-1.98,3.045-2.411a7.489,7.489,0,0,0-3.045,2.411" transform="translate(-503.259 -281.708)" fill="#fff"/>
            <path id="Trazado_997" data-name="Trazado 997" d="M649.8,307.751c-.087.171.261.342.345.517a11.459,11.459,0,0,1,3.48-1.291.086.086,0,0,1,.062.025.084.084,0,0,1,.025.061,20.228,20.228,0,0,0-3.48,1.377.967.967,0,0,1,.435.689c-.173.775-1.74,1.377-2.436,1.377-.261,0-.345-.171-.435-.431,0-.517,1.74-1.463,2.174-1.636-.087-.171-.783-.6-.7-1.119.173-.861,1.914-1.722,2.871-1.722.345,0,.522.517.435.861a2.094,2.094,0,0,1-1.044.861v-.086a5.994,5.994,0,0,0,.87-1.033,4.287,4.287,0,0,0-2.61,1.549m-1.74,2.152c.435-.086,1.914-.861,1.914-1.291a9.089,9.089,0,0,0-1.914,1.291" transform="translate(-503.831 -281.665)" fill="#fff"/>
            <path id="Trazado_998" data-name="Trazado 998" d="M486.75,302.635v-3.357h0l-1.3,3.357h-.783l-1.218-3.357h0v3.357H482.4V297.9h1.653l1.044,3.013h0l1.131-3.013h1.653v4.735Z" transform="translate(-482.313 -280.595)" fill="#fff"/>
            <path id="Trazado_999" data-name="Trazado 999" d="M496.428,302.635l-.345-.947h-1.827l-.345.947H492.6l2-4.735h1.131l2,4.735Zm-1.3-3.444-.609,1.636h1.218Z" transform="translate(-483.64 -280.595)" fill="#fff"/>
            <path id="Trazado_1000" data-name="Trazado 1000" d="M505.01,302.633l-1.044-1.894h-.435v1.894H502.4V297.9h1.827a1.932,1.932,0,0,1,.7.086c.261.086.435.086.609.258a1.044,1.044,0,0,1,.435.431,1.609,1.609,0,0,1,.173.689,1.046,1.046,0,0,1-.261.775,1.2,1.2,0,0,1-.7.431l1.218,2.066h-1.392Zm-.087-3.271a.314.314,0,0,0-.087-.258l-.173-.171c-.087,0-.173-.086-.261-.086h-.87v1.119h.783c.087,0,.173-.086.261-.086a.186.186,0,0,0,.173-.171c.173-.171.173-.258.173-.342" transform="translate(-484.915 -280.592)" fill="#fff"/>
            <rect id="Rectángulo_169" data-name="Rectángulo 169" width="1.131" height="4.735" transform="translate(24.966 17.305)" fill="#fff"/>
            <path id="Trazado_1001" data-name="Trazado 1001" d="M519.245,302.635h-1.218L516.2,297.9h1.3l1.131,3.357h0l1.133-3.357h1.3Z" transform="translate(-486.711 -280.595)" fill="#fff"/>
            <path id="Trazado_1002" data-name="Trazado 1002" d="M528.527,302.635l-.345-.947h-1.827l-.345.947H524.7l2-4.735h1.131l2,4.735Zm-1.3-3.444-.609,1.636h1.218Z" transform="translate(-487.816 -280.595)" fill="#fff"/>
            <path id="Trazado_1003" data-name="Trazado 1003" d="M534.5,302.635V297.9h1.131v3.788h1.914v.947Z" transform="translate(-489.092 -280.595)" fill="#fff"/>
            <path id="Trazado_1004" data-name="Trazado 1004" d="M484.91,310.633l-1.044-1.894h-.435v1.894H482.3V305.9h1.827a1.934,1.934,0,0,1,.7.086c.261.086.435.086.609.258a1.043,1.043,0,0,1,.435.431,1.609,1.609,0,0,1,.173.689,1.046,1.046,0,0,1-.261.775,1.2,1.2,0,0,1-.7.431l1.218,2.066h-1.392Zm0-3.271a.314.314,0,0,0-.087-.258l-.173-.171c-.087,0-.173-.086-.261-.086h-.87v1.119h.783c.087,0,.173-.086.261-.086a.186.186,0,0,0,.173-.171c.087-.171.173-.258.173-.342" transform="translate(-482.3 -281.705)" fill="#fff"/>
            <path id="Trazado_1005" data-name="Trazado 1005" d="M491,310.635V305.9h3.218v.947h-2.088v.947h2v.861h-2v1.033h2.175v.947Z" transform="translate(-483.432 -281.708)" fill="#fff"/>
            <path id="Trazado_1006" data-name="Trazado 1006" d="M501.7,307.09c-.087-.086-.261-.258-.345-.258a.954.954,0,0,0-.435-.086h-.261c-.087,0-.173,0-.173.086-.087,0-.087.086-.173.171,0,.086-.087.171-.087.258s0,.171.087.171c0,.086.087.086.173.171.087,0,.173.086.261.086s.173.086.345.086c.173.086.345.086.522.171l.522.258a.861.861,0,0,1,.345.431,1.236,1.236,0,0,1,.173.6,1.609,1.609,0,0,1-.173.689,2.288,2.288,0,0,1-.435.517.793.793,0,0,1-.609.258c-.261,0-.435.086-.7.086a3.156,3.156,0,0,1-.957-.171A1.267,1.267,0,0,1,499,310.1l.783-.775a.867.867,0,0,0,.435.342,1.267,1.267,0,0,0,.609.171h.261a.3.3,0,0,0,.173-.086c.087,0,.087-.086.173-.171,0-.086.087-.171.087-.258a.314.314,0,0,0-.087-.258l-.173-.171c-.087-.086-.173-.086-.345-.171a1.477,1.477,0,0,1-.435-.171c-.173-.086-.345-.086-.435-.171-.173-.086-.261-.171-.435-.258-.087-.086-.173-.258-.261-.342a1.083,1.083,0,0,1-.087-.517,1.61,1.61,0,0,1,.173-.689,1.044,1.044,0,0,1,.435-.431,4.261,4.261,0,0,1,.609-.258,1.934,1.934,0,0,1,.7-.086,3.868,3.868,0,0,1,.87.171,3.543,3.543,0,0,1,.783.431Z" transform="translate(-484.472 -281.692)" fill="#fff"/>
            <path id="Trazado_1007" data-name="Trazado 1007" d="M512.216,308.2a4.281,4.281,0,0,1-.173,1.033,3,3,0,0,1-.522.775,1.809,1.809,0,0,1-.87.517,3.249,3.249,0,0,1-2.088,0,1.809,1.809,0,0,1-.87-.517,2.033,2.033,0,0,1-.522-.775A2.163,2.163,0,0,1,507,308.2a4.278,4.278,0,0,1,.173-1.033,3,3,0,0,1,.522-.775,2.9,2.9,0,0,1,.868-.518,3.249,3.249,0,0,1,2.088,0,1.809,1.809,0,0,1,.87.517,1.547,1.547,0,0,1,.522.775,4.277,4.277,0,0,1,.173,1.033m-1.3,0a1.449,1.449,0,0,0-.087-.6,1.494,1.494,0,0,0-.7-.775,1.628,1.628,0,0,0-1.044,0,.867.867,0,0,0-.435.342,1.88,1.88,0,0,0-.261.431,1.265,1.265,0,0,0-.087.6,1.449,1.449,0,0,0,.087.6,1.883,1.883,0,0,0,.261.431.868.868,0,0,0,.435.342,1.628,1.628,0,0,0,1.044,0,.867.867,0,0,0,.435-.342c.087-.171.173-.258.261-.431a1.264,1.264,0,0,0,.087-.6" transform="translate(-485.511 -281.679)" fill="#fff"/>
            <path id="Trazado_1008" data-name="Trazado 1008" d="M519.81,310.633l-1.044-1.894h-.435v1.894H517.2V305.9h1.827a1.934,1.934,0,0,1,.7.086c.261.086.435.086.609.258a1.044,1.044,0,0,1,.435.431,1.61,1.61,0,0,1,.173.689,1.045,1.045,0,0,1-.261.775,1.9,1.9,0,0,1-.7.431l1.218,2.066h-1.392Zm0-3.271a.314.314,0,0,0-.087-.258l-.173-.171a.322.322,0,0,0-.261-.086h-.87v1.119h.783c.087,0,.173-.086.261-.086a.186.186,0,0,0,.173-.171c.173-.171.173-.258.173-.342" transform="translate(-486.841 -281.705)" fill="#fff"/>
            <path id="Trazado_1009" data-name="Trazado 1009" d="M527.723,306.847v3.788h-1.131v-3.788H525.2V305.9h3.914v.947Z" transform="translate(-487.882 -281.708)" fill="#fff"/>
            <path id="Trazado_1010" data-name="Trazado 1010" d="M536.3,307.09c-.087-.086-.261-.258-.345-.258a.955.955,0,0,0-.435-.086h-.261c-.087,0-.173,0-.173.086-.087,0-.087.086-.173.171,0,.086-.087.171-.087.258s0,.171.087.171c0,.086.087.086.173.171.087,0,.173.086.261.086s.173.086.345.086c.173.086.345.086.522.171l.522.258a.863.863,0,0,1,.345.431,1.235,1.235,0,0,1,.173.6,1.609,1.609,0,0,1-.173.689,2.287,2.287,0,0,1-.435.517.793.793,0,0,1-.609.258c-.261,0-.435.086-.7.086a3.157,3.157,0,0,1-.957-.171,1.267,1.267,0,0,1-.783-.517l.783-.775a.867.867,0,0,0,.435.342,1.267,1.267,0,0,0,.609.171h.261a.3.3,0,0,0,.173-.086c.087,0,.087-.086.173-.171,0-.086.087-.171.087-.258a.313.313,0,0,0-.087-.258l-.173-.171c-.087-.086-.173-.086-.345-.171a1.478,1.478,0,0,1-.435-.171c-.173-.086-.345-.086-.435-.171a1.9,1.9,0,0,0-.435-.258c-.087-.086-.173-.258-.261-.342a1.081,1.081,0,0,1-.087-.517,1.609,1.609,0,0,1,.173-.689,1.045,1.045,0,0,1,.435-.431,4.264,4.264,0,0,1,.609-.258,1.934,1.934,0,0,1,.7-.086,3.867,3.867,0,0,1,.87.171,3.542,3.542,0,0,1,.783.431Z" transform="translate(-488.974 -281.692)" fill="#fff"/>
          </g>
        </g>
      </g>
    </g>
    <g id="insignias_ao_35aniv_5star_1_" data-name="insignias_ao_35aniv_5star (1)" transform="translate(458.172 2.98)">
      <g id="Grupo_82" data-name="Grupo 82" transform="translate(0 0)">
        <g id="Grupo_76" data-name="Grupo 76">
          <path id="Trazado_820" data-name="Trazado 820" d="M512.139,303.884a8.177,8.177,0,0,0,.748-1.784,3.76,3.76,0,0,0-1.727,1.041c-.526.669-.826,1.412-.676,1.709a10.791,10.791,0,0,1,1.727-2.007s-1.2,1.709-1.577,2.155A2.821,2.821,0,0,0,512.139,303.884Z" transform="translate(-506.956 -283.59)" fill="#fff"/>
          <path id="Trazado_821" data-name="Trazado 821" d="M509.028,305.049a16.9,16.9,0,0,1-1.653-2.082,16.773,16.773,0,0,1,1.8,1.933c.15-.3-.15-.968-.676-1.635a3.447,3.447,0,0,0-1.8-.968,6.383,6.383,0,0,0,.826,1.784C508.052,304.751,508.728,305.2,509.028,305.049Z" transform="translate(-506.024 -283.64)" fill="#fff"/>
          <path id="Trazado_822" data-name="Trazado 822" d="M511.29,299.372c-.676.595-1.052,1.263-.9,1.561a14.268,14.268,0,0,1,2.1-1.709s-1.5,1.487-1.953,1.858c.3.149.978-.149,1.652-.741a5.908,5.908,0,0,0,1.052-1.635,3.193,3.193,0,0,0-1.953.666Z" transform="translate(-506.934 -282.72)" fill="#fff"/>
          <path id="Trazado_823" data-name="Trazado 823" d="M508.9,300.7a12.724,12.724,0,0,1-1.277-2.379,17.344,17.344,0,0,1,1.427,2.23c.226-.223.075-.968-.375-1.784A3.507,3.507,0,0,0,507.1,297.5a5.4,5.4,0,0,0,.526,1.858C508.079,300.25,508.6,300.771,508.9,300.7Z" transform="translate(-506.124 -282.41)" fill="#fff"/>
          <path id="Trazado_824" data-name="Trazado 824" d="M512,295.664c-.748.446-1.277,1.041-1.2,1.338a18.591,18.591,0,0,1,2.329-1.338s-1.727,1.189-2.253,1.487c.225.223.978,0,1.727-.446a6.742,6.742,0,0,0,1.352-1.412A3.343,3.343,0,0,0,512,295.664Z" transform="translate(-507.042 -281.837)" fill="#fff"/>
          <path id="Trazado_825" data-name="Trazado 825" d="M509.6,296.517a18.547,18.547,0,0,1-.826-2.527,23.95,23.95,0,0,1,1.052,2.453,2.088,2.088,0,0,0-.075-1.784,3.663,3.663,0,0,0-1.352-1.561,6.663,6.663,0,0,0,.15,1.933C508.845,295.924,509.3,296.517,509.6,296.517Z" transform="translate(-506.441 -281.279)" fill="#fff"/>
          <path id="Trazado_826" data-name="Trazado 826" d="M513.427,292.148c-.826.371-1.427.817-1.427,1.115a15.409,15.409,0,0,1,2.554-.892,24.528,24.528,0,0,1-2.478,1.041c.225.223.978.149,1.8-.149a6.736,6.736,0,0,0,1.577-1.189A4.668,4.668,0,0,0,513.427,292.148Z" transform="translate(-507.343 -280.998)" fill="#fff"/>
          <path id="Trazado_827" data-name="Trazado 827" d="M510.951,292.468a15.79,15.79,0,0,1-.376-2.677,9.545,9.545,0,0,1,.6,2.6c.3-.149.376-.892.226-1.784a3.233,3.233,0,0,0-1.052-1.709,5.858,5.858,0,0,0-.15,1.933C510.275,291.724,510.651,292.393,510.951,292.468Z" transform="translate(-506.895 -280.202)" fill="#fff"/>
          <path id="Trazado_828" data-name="Trazado 828" d="M515.477,289c-.9.223-1.577.521-1.577.892a18.216,18.216,0,0,1,2.705-.446,17.8,17.8,0,0,1-2.629.595c.15.3.9.371,1.8.149a6.642,6.642,0,0,0,1.727-.892A3.673,3.673,0,0,0,515.477,289Z" transform="translate(-507.816 -280.225)" fill="#fff"/>
          <path id="Trazado_829" data-name="Trazado 829" d="M512.927,288.669a13.964,13.964,0,0,1,.075-2.677,12.386,12.386,0,0,1,.15,2.677c.3-.075.526-.818.526-1.709a3.365,3.365,0,0,0-.748-1.858,6.433,6.433,0,0,0-.526,1.858C512.4,287.851,512.627,288.594,512.927,288.669Z" transform="translate(-507.444 -279.228)" fill="#fff"/>
          <path id="Trazado_830" data-name="Trazado 830" d="M518.027,286.2c-.9,0-1.652.3-1.727.595a15.857,15.857,0,0,1,2.705,0,22.188,22.188,0,0,1-2.705.149c.075.3.826.521,1.727.446a6,6,0,0,0,1.878-.595A3.2,3.2,0,0,0,518.027,286.2Z" transform="translate(-508.414 -279.511)" fill="#fff"/>
          <path id="Trazado_831" data-name="Trazado 831" d="M515.5,285.395c.075-.595.526-2.6.526-2.6a11.506,11.506,0,0,1-.376,2.677c.3-.074.676-.741.826-1.561a3.857,3.857,0,0,0-.375-2.007,5.737,5.737,0,0,0-.826,1.784C515.125,284.5,515.2,285.246,515.5,285.395Z" transform="translate(-508.14 -278.408)" fill="#fff"/>
          <path id="Trazado_832" data-name="Trazado 832" d="M522.779,284.744a3.811,3.811,0,0,0-1.8-.968c-.9-.149-1.652,0-1.8.3a11.381,11.381,0,0,1,2.629.52,15.374,15.374,0,0,1-2.705-.3c.075.3.748.595,1.652.741A7.16,7.16,0,0,0,522.779,284.744Z" transform="translate(-509.109 -278.872)" fill="#fff"/>
          <path id="Trazado_833" data-name="Trazado 833" d="M519.539,280.092a11.75,11.75,0,0,1-.826,2.527c.3,0,.748-.595,1.126-1.412a4.042,4.042,0,0,0,0-2.007,7.077,7.077,0,0,0-1.126,1.561c-.3.817-.376,1.561-.075,1.784a13.739,13.739,0,0,1,.9-2.453Z" transform="translate(-508.948 -277.714)" fill="#fff"/>
          <path id="Trazado_834" data-name="Trazado 834" d="M522.6,282.171c0,.3.6.741,1.5,1.041a6.061,6.061,0,0,0,1.953.075,3.74,3.74,0,0,0-1.577-1.264c-.827-.3-1.652-.3-1.8,0a10.122,10.122,0,0,1,2.554.968C525.154,282.915,523.126,282.395,522.6,282.171Z" transform="translate(-509.981 -278.38)" fill="#fff"/>
          <path id="Trazado_835" data-name="Trazado 835" d="M523.484,278.017a15.556,15.556,0,0,1-1.277,2.379c.3.074.9-.446,1.352-1.189a3.862,3.862,0,0,0,.3-2.007,7.957,7.957,0,0,0-1.427,1.412,2.24,2.24,0,0,0-.451,1.709A25.89,25.89,0,0,1,523.484,278.017Z" transform="translate(-509.814 -277.2)" fill="#fff"/>
          <path id="Trazado_836" data-name="Trazado 836" d="M555.6,304.751c.15-.3-.075-.968-.676-1.709A3.76,3.76,0,0,0,553.2,302a8.182,8.182,0,0,0,.751,1.784c.526.669,1.2,1.115,1.5,1.041a23.026,23.026,0,0,1-1.577-2.156A25.886,25.886,0,0,1,555.6,304.751Z" transform="translate(-517.598 -283.565)" fill="#fff"/>
          <path id="Trazado_837" data-name="Trazado 837" d="M555.679,300.906c.15-.3-.225-.968-.9-1.561a3.531,3.531,0,0,0-1.878-.741,8.655,8.655,0,0,0,1.052,1.635c.676.595,1.352.968,1.652.741a24.889,24.889,0,0,1-1.953-1.858C553.576,299.122,555.228,300.386,555.679,300.906Z" transform="translate(-517.523 -282.694)" fill="#fff"/>
          <path id="Trazado_838" data-name="Trazado 838" d="M553.828,295.663a3.563,3.563,0,0,0-2.028-.372,5.3,5.3,0,0,0,1.352,1.412c.748.446,1.5.669,1.727.446a22.923,22.923,0,0,1-2.253-1.487A14.424,14.424,0,0,1,554.953,297C555.1,296.7,554.579,296.183,553.828,295.663Z" transform="translate(-517.25 -281.836)" fill="#fff"/>
          <path id="Trazado_839" data-name="Trazado 839" d="M552.328,292.15a3.366,3.366,0,0,0-2.028,0,6.737,6.737,0,0,0,1.577,1.189c.826.372,1.577.446,1.8.149a24.515,24.515,0,0,1-2.478-1.041,15.417,15.417,0,0,1,2.554.892C553.753,292.966,553.154,292.521,552.328,292.15Z" transform="translate(-516.876 -280.999)" fill="#fff"/>
          <path id="Trazado_840" data-name="Trazado 840" d="M550.228,288.993a3.5,3.5,0,0,0-2.028.3,8.336,8.336,0,0,0,1.727.892c.9.223,1.652.149,1.8-.149-.6-.075-2.629-.595-2.629-.595a13.165,13.165,0,0,1,2.705.446C551.805,289.513,551.129,289.215,550.228,288.993Z" transform="translate(-516.354 -280.221)" fill="#fff"/>
          <path id="Trazado_841" data-name="Trazado 841" d="M549.381,286.695c-.075-.3-.826-.521-1.727-.595a4.057,4.057,0,0,0-1.953.669,9.111,9.111,0,0,0,1.878.595c.9,0,1.652-.149,1.727-.446-.6,0-2.705-.149-2.705-.149A15.269,15.269,0,0,1,549.381,286.695Z" transform="translate(-515.732 -279.484)" fill="#fff"/>
          <path id="Trazado_842" data-name="Trazado 842" d="M544.6,283.78a3.811,3.811,0,0,0-1.8.968,5.429,5.429,0,0,0,1.953.223c.9-.149,1.577-.446,1.652-.741a15.378,15.378,0,0,1-2.705.3,12.333,12.333,0,0,1,2.629-.521C546.253,283.78,545.505,283.631,544.6,283.78Z" transform="translate(-515.01 -278.874)" fill="#fff"/>
          <path id="Trazado_843" data-name="Trazado 843" d="M541.277,281.927a3.74,3.74,0,0,0-1.577,1.263,9.605,9.605,0,0,0,1.953-.074c.826-.3,1.5-.669,1.5-1.041a16.58,16.58,0,0,1-2.554.741,23.942,23.942,0,0,1,2.554-.968C542.93,281.63,542.178,281.7,541.277,281.927Z" transform="translate(-514.238 -278.359)" fill="#fff"/>
          <path id="Trazado_844" data-name="Trazado 844" d="M525.377,299a13.8,13.8,0,0,1,2.1-.741,11.725,11.725,0,0,1,2.328-.3,7.644,7.644,0,0,1,1.878.223,5.034,5.034,0,0,1,1.577.669,2.913,2.913,0,0,1,1.052,1.264,3.588,3.588,0,0,1,.375,1.858,2.993,2.993,0,0,1-.3,1.412,3.436,3.436,0,0,1-1.877,1.858,4.484,4.484,0,0,1-1.5.3,3.677,3.677,0,0,1-2.253-.669,3.318,3.318,0,0,1-1.2-1.784l-3.756.968a6.436,6.436,0,0,0,2.478,3.568,7.405,7.405,0,0,0,4.281,1.189,8.248,8.248,0,0,0,3-.52,7.059,7.059,0,0,0,2.4-1.412,6.037,6.037,0,0,0,1.577-2.23,7.508,7.508,0,0,0,.6-2.974,6.779,6.779,0,0,0-.526-2.825,6.352,6.352,0,0,0-3.605-3.568,8.473,8.473,0,0,0-2.854-.52,6.944,6.944,0,0,0-1.2.074,3.7,3.7,0,0,0-1.052.223l.075-4.163h8.414v-3.2H525.452Z" transform="translate(-510.28 -279.895)" fill="#fff"/>
          <path id="Trazado_845" data-name="Trazado 845" d="M543.881,302.03l-.3-.892a17.14,17.14,0,0,0,.6-2.677h0a9.5,9.5,0,0,1,1.8-1.933s-1.277,1.709-1.652,2.081c.3.149.9-.3,1.5-.968a6.38,6.38,0,0,0,.826-1.784,3.446,3.446,0,0,0-1.8.968,2.273,2.273,0,0,0-.6.968c.075-.817.075-1.561.075-2.379h0a13.2,13.2,0,0,1,1.427-2.23s-.978,1.858-1.277,2.379c.3.075.9-.446,1.352-1.263a9.172,9.172,0,0,0,.526-1.859,3.508,3.508,0,0,0-1.577,1.264,3.951,3.951,0,0,0-.451,1.041,13.05,13.05,0,0,0-.375-2.379h0a11.841,11.841,0,0,1,1.052-2.453s-.6,2.007-.826,2.527c.3,0,.748-.595,1.052-1.412a6.663,6.663,0,0,0,.15-1.933,3.2,3.2,0,0,0-1.352,1.561,3.634,3.634,0,0,0-.225,1.115,20.766,20.766,0,0,0-.748-2.3h0a10.328,10.328,0,0,1,.6-2.6,16.841,16.841,0,0,1-.375,2.677c.3-.075.676-.741.826-1.635a5.856,5.856,0,0,0-.15-1.933,3.643,3.643,0,0,0-1.052,1.709,7.174,7.174,0,0,0-.075,1.189,19.927,19.927,0,0,0-1.2-2.156h.076a12.359,12.359,0,0,1,.15-2.677,13.959,13.959,0,0,1,.075,2.677c.3-.075.526-.818.526-1.709a6.436,6.436,0,0,0-.526-1.858,3.7,3.7,0,0,0-.748,1.858,5.123,5.123,0,0,0,.15,1.189,18.411,18.411,0,0,0-1.577-2.007h.075a16.827,16.827,0,0,1-.375-2.677,11.994,11.994,0,0,1,.526,2.6c.3-.149.375-.892.225-1.784a8.34,8.34,0,0,0-.826-1.784,3.185,3.185,0,0,0-.375,2.007,3.715,3.715,0,0,0,.375,1.189,21.3,21.3,0,0,0-1.953-1.709h.075a22.585,22.585,0,0,1-.826-2.527s.826,1.933.978,2.453a2.093,2.093,0,0,0-.075-1.784,7.081,7.081,0,0,0-1.127-1.561,3.267,3.267,0,0,0,0,2.007,3.56,3.56,0,0,0,.676,1.189A24.146,24.146,0,0,0,534.8,280.4h.15a15.56,15.56,0,0,1-1.277-2.379s1.126,1.709,1.427,2.3c.225-.223.075-.968-.451-1.709a6.046,6.046,0,0,0-1.427-1.412,3.863,3.863,0,0,0,.3,2.007,3.232,3.232,0,0,0,.9,1.041,17.255,17.255,0,0,0-1.727-.743h-.075c-.15-.074-.225-.074-.375-.149a17.71,17.71,0,0,1-2.028-.968s2.028.741,2.554,1.041c0-.3-.6-.892-1.428-1.189a7.952,7.952,0,0,0-1.953-.223,3.725,3.725,0,0,0,1.5,1.412,3.418,3.418,0,0,0,1.577.3,17.5,17.5,0,0,1,11.569,18.659,25.079,25.079,0,0,1-.526,2.527l-.676-2.156-1.126,3.345h-3.53l2.84,2.082-1.052,3.122a9.623,9.623,0,0,1-1.2,1.264h-1.052l-1.427-4.46-1.427,4.46h-4.732l3.83,2.75-.225.595a14.974,14.974,0,0,1-3.53,1.115l1.727-1.263H527.73l-1.277-3.94-1.277,3.94H520.97l1.577,1.115a27.116,27.116,0,0,1-2.629-.818l-.226-.817,3.83-2.75h-4.732l-1.427-4.46-1.427,4.46h-1.352a13.416,13.416,0,0,1-1.427-1.487l-.979-2.9,2.854-2.081H511.5l-1.127-3.345-.6,1.933a16.358,16.358,0,0,1-.451-6.913,17.452,17.452,0,0,1,11.569-14.049,3.141,3.141,0,0,0,1.5-.3,3.724,3.724,0,0,0,1.5-1.412,7.956,7.956,0,0,0-1.953.223c-.826.3-1.427.892-1.427,1.189a23.6,23.6,0,0,1,2.554-1.041,16.8,16.8,0,0,1-2.478,1.115h0a17.552,17.552,0,0,0-11.492,14.2,18.147,18.147,0,0,0,.6,7.285l-.375,1.041H505.8l2.854,2.081-1.126,3.345,2.854-2.081,2.705,1.933c.376.446.751.817,1.126,1.189h-3l3.83,2.75-1.427,4.46,3.83-2.75,3.83,2.75-1.127-3.418a22,22,0,0,0,2.929.892l1.427,1.041-1.277,3.94,3.38-2.453,3.38,2.453-1.277-3.94,1.277-.892a16.381,16.381,0,0,0,3.83-1.189l-1.2,3.568,3.83-2.75,3.83,2.75-1.427-4.46,3.83-2.75H539a11.462,11.462,0,0,0,1.277-1.412l2.4-1.784,2.854,2.081-1.126-3.345,2.854-2.081h-3.38Z" transform="translate(-505.8 -277.201)" fill="#fff"/>
          <path id="Trazado_846" data-name="Trazado 846" d="M573.985,304.1a4.523,4.523,0,0,0,2.253-3.94c0-2.007-1.052-3.568-3.981-5.575l-.676-.446c-2.4-1.635-3.155-2.453-3.155-3.94,0-1.635,1.427-2.527,3.23-2.527,2.178,0,3,.892,3.155,1.115a6.5,6.5,0,0,1,.375,1.115c0,.223.075.3.225.3s.225-.149.225-.521c0-1.561.075-2.3.075-2.453s-.075-.149-.225-.149a4.088,4.088,0,0,1-.826-.074,11.28,11.28,0,0,0-2.478-.3c-3.155,0-5.333,1.635-5.333,4.386,0,1.635.826,3.048,3.453,4.98l1.126.817c2.178,1.561,3.079,2.379,3.079,4.014,0,1.709-1.2,3.048-3.605,3.048-1.652,0-3.453-.595-3.83-2.3a3.617,3.617,0,0,1-.075-.818c0-.223-.075-.3-.225-.3s-.225.149-.225.372c0,.371-.15,1.338-.15,2.453,0,.595,0,.74.375.892a9.276,9.276,0,0,0,3.53.595A6.459,6.459,0,0,0,573.985,304.1Z" transform="translate(-520.882 -279.639)" fill="#fff"/>
          <path id="Trazado_847" data-name="Trazado 847" d="M583.85,289.848c.075,0,.225,0,.225-.223a3.091,3.091,0,0,1,.376-.741c.375-.521.9-.741,2.478-.741l3.53-.074v9.741c0,2.23,0,4.088-.075,4.98-.075.669-.226,1.115-.751,1.263a2.579,2.579,0,0,1-.751.075c-.15,0-.225.074-.225.149,0,.149.075.223.376.223.748,0,2.4-.075,2.478-.075.15,0,1.652.075,3,.075.3,0,.375-.075.375-.223,0-.075,0-.223-.225-.223s-.751-.074-1.126-.074c-.751-.075-.826-.521-.9-1.189-.075-.968-.075-2.75-.075-4.98V288.07l3,.074c2.328.075,2.854.595,2.929,1.264v.223c0,.3.075.371.226.371.075,0,.225-.074.225-.3,0-.3.075-1.933.075-2.677,0-.149,0-.3-.075-.3a4.184,4.184,0,0,1-.676.074,10.255,10.255,0,0,1-1.727.074H587.38c-.3,0-1.2,0-1.878-.074a4.854,4.854,0,0,1-1.052-.3c-.075,0-.225.3-.225.446,0,.223-.526,2.23-.526,2.527C583.7,289.848,583.775,289.848,583.85,289.848Z" transform="translate(-525.19 -279.59)" fill="#fff"/>
          <path id="Trazado_848" data-name="Trazado 848" d="M614.617,298.245l2.178,5.278c.15.372-.075.595-.225.595-.075.074-.15.074-.15.149,0,.149.375.149.826.149,1.652.075,3.453.075,3.83.075.3,0,.526-.075.526-.223s-.15-.223-.3-.223a2.594,2.594,0,0,1-.978-.149c-.526-.149-1.2-.446-2.028-2.527-1.5-3.494-5.333-13.083-5.783-14.049-.226-.521-.3-.818-.6-.818-.15,0-.3.149-.6.892l-5.708,14.5c-.451,1.189-.9,2.007-2.028,2.155-.225,0-.526.075-.751.075a.239.239,0,0,0-.225.223q0,.223.451.223c.978,0,2.179-.074,2.478-.074s1.577.074,2.178.074c.226,0,.375-.074.375-.223a.239.239,0,0,0-.225-.223h-.226c-.375,0-.826-.149-.826-.595a5.1,5.1,0,0,1,.375-1.561l1.352-3.717q.115-.223.226-.223h5.558C614.541,298.1,614.617,298.171,614.617,298.245Zm-.526-1.115h-4.882c-.075,0-.075-.074-.075-.149l2.253-6.318c.15-.371.3-.371.376,0l2.4,6.318c0,.149,0,.149-.077.149Z" transform="translate(-529.893 -279.587)" fill="#fff"/>
          <path id="Trazado_849" data-name="Trazado 849" d="M647.651,304.372a4.5,4.5,0,0,1-.826-.075,4.327,4.327,0,0,1-2.705-1.635,76.864,76.864,0,0,1-5.032-6.021c2.253-1.933,3-3.568,3-5.278a3.811,3.811,0,0,0-1.652-3.122,7.924,7.924,0,0,0-4.507-1.041c-.748,0-2.779.074-3,.074-.15,0-1.727-.074-2.854-.074-.3,0-.375.074-.375.223a.239.239,0,0,0,.225.223,3.112,3.112,0,0,1,.826.074c.826.075.9.521.978,1.264s.075,1.412.075,4.98v4.088a41.725,41.725,0,0,1-.15,4.98c-.075.669-.15,1.115-.6,1.189a2.584,2.584,0,0,1-.748.074.2.2,0,0,0-.169.056.2.2,0,0,0-.056.167c0,.149.15.223.376.223.748,0,2.328-.074,2.4-.074s1.652.074,3,.074c.3,0,.375-.074.375-.223,0-.075,0-.223-.226-.223s-.748-.074-1.051-.074c-.748-.075-.9-.521-.978-1.189-.075-.968-.075-2.75-.075-4.98v-.52c0-.149.075-.223.15-.223l3.079.075c.15,0,.225,0,.3.149.526.595,1.577,2.156,2.629,3.345a13.227,13.227,0,0,0,3.3,3.418,5.183,5.183,0,0,0,2.554.446h1.5c.451,0,.6-.074.6-.223C647.877,304.446,647.8,304.372,647.651,304.372Zm-9.314-8.251a3.167,3.167,0,0,1-1.8.371,7.753,7.753,0,0,1-2.705-.371.384.384,0,0,1-.15-.3v-7.434c0-.149.075-.223.226-.3a8.584,8.584,0,0,1,1.727-.149c2.554,0,4.206,1.635,4.206,4.534C639.765,294.41,639.164,295.6,638.337,296.121Z" transform="translate(-536.639 -279.766)" fill="#fff"/>
          <path id="Trazado_850" data-name="Trazado 850" d="M570.6,321.512a.074.074,0,0,0-.053.021.073.073,0,0,0-.022.053.567.567,0,0,1-.15.372c-.15.223-.526.223-.9.223a2.084,2.084,0,0,1-.978-.149c-.15-.149-.15-.52-.15-1.561v-2.75c0-.223.075-.371.3-.371h.225a.074.074,0,0,0,.054-.021.072.072,0,0,0,.022-.053c0-.075-.075-.075-.15-.075h-1.652c-.075,0-.15,0-.15.075a.072.072,0,0,0,.022.053.074.074,0,0,0,.053.021h.225c.226,0,.3.149.3.371v2.75a7.63,7.63,0,0,1-.075,1.487c0,.223-.075.371-.225.371h-.225c-.075,0-.075,0-.075.075s.075.074.15.074H570c.375,0,.451,0,.451-.223a2.543,2.543,0,0,0,.075-.669Z" transform="translate(-521.032 -287.466)" fill="#fff"/>
          <path id="Trazado_851" data-name="Trazado 851" d="M577.733,317.2h-1.427c-.075,0-.15,0-.15.074a.073.073,0,0,0,.021.053.074.074,0,0,0,.054.022h.226c.225,0,.3.149.3.371V320.1a2.442,2.442,0,0,1-.451,1.709,1.474,1.474,0,0,1-1.127.52,1.59,1.59,0,0,1-1.126-.371,2.072,2.072,0,0,1-.526-1.709v-2.453c0-.223.075-.371.226-.371h.15a.074.074,0,0,0,.053-.021.072.072,0,0,0,.022-.053c0-.075-.075-.075-.15-.075H572.25c-.075,0-.15,0-.15.075a.073.073,0,0,0,.022.053.074.074,0,0,0,.053.021h.225c.226,0,.3.149.3.371v2.527a2.276,2.276,0,0,0,.676,1.858,2.564,2.564,0,0,0,1.5.52,2.176,2.176,0,0,0,1.5-.52,2.612,2.612,0,0,0,.676-2.081v-2.23c0-.223.075-.371.226-.371h.15a.074.074,0,0,0,.054-.022.072.072,0,0,0,.021-.053C577.808,317.2,577.808,317.2,577.733,317.2Z" transform="translate(-522.302 -287.465)" fill="#fff"/>
          <path id="Trazado_852" data-name="Trazado 852" d="M585.056,322.3a.277.277,0,0,1-.225-.074.957.957,0,0,1-.451-.3c-.15-.223-1.427-2.23-1.577-2.453l1.2-1.709c.225-.3.375-.521.526-.521h.225a.074.074,0,0,0,.054-.021.072.072,0,0,0,.022-.053s0-.075-.15-.075H583.4c-.075,0-.15,0-.15.075a.073.073,0,0,0,.022.053.074.074,0,0,0,.053.021h.225a.161.161,0,0,1,.15.149.272.272,0,0,1-.075.223c-.075.149-.826,1.338-1.052,1.635-.375-.595-.676-1.115-.978-1.635a.272.272,0,0,1-.075-.223c0-.074,0-.074.075-.074h.225c.075,0,.075,0,.075-.075,0,0,0-.074-.15-.074h-1.577c-.075,0-.15,0-.15.074a.072.072,0,0,0,.021.053.074.074,0,0,0,.054.022.455.455,0,0,1,.3.074,1.178,1.178,0,0,1,.526.521l1.126,1.858-1.277,2.007c-.225.372-.375.521-.6.521-.075,0-.225.074-.3.074s-.075,0-.075.075a.073.073,0,0,0,.021.053.074.074,0,0,0,.053.021H581.3c.075,0,.075,0,.075-.074a.073.073,0,0,0-.021-.053.075.075,0,0,0-.054-.022h-.15a.161.161,0,0,1-.15-.149.444.444,0,0,1,.075-.3l1.127-1.858c.451.741.826,1.412,1.2,2.081.075.149,0,.223-.075.223a.075.075,0,0,0-.053.021.073.073,0,0,0-.022.053s0,.075.225.075h1.2c.451-.075.451-.075.376-.223C585.131,322.379,585.131,322.3,585.056,322.3Z" transform="translate(-524.217 -287.44)" fill="#fff"/>
          <path id="Trazado_853" data-name="Trazado 853" d="M592.658,317.2h-1.427c-.075,0-.15,0-.15.074a.072.072,0,0,0,.021.053.074.074,0,0,0,.054.021h.225c.225,0,.3.149.3.371V320.1a2.441,2.441,0,0,1-.451,1.709,1.474,1.474,0,0,1-1.127.52,1.316,1.316,0,0,1-1.052-.371,2.073,2.073,0,0,1-.526-1.709v-2.453c0-.223.075-.371.225-.371h.15a.074.074,0,0,0,.053-.021.072.072,0,0,0,.022-.053c0-.075-.075-.075-.15-.075H587.25c-.075,0-.15,0-.15.075a.073.073,0,0,0,.022.053.074.074,0,0,0,.053.021h.225c.225,0,.3.149.3.371v2.527a2.276,2.276,0,0,0,.676,1.858,2.565,2.565,0,0,0,1.5.52,2.176,2.176,0,0,0,1.5-.52,2.613,2.613,0,0,0,.676-2.081v-2.23c0-.223.075-.371.225-.371h.15a.074.074,0,0,0,.054-.022.072.072,0,0,0,.021-.053C592.733,317.2,592.733,317.2,592.658,317.2Z" transform="translate(-526.036 -287.465)" fill="#fff"/>
          <path id="Trazado_854" data-name="Trazado 854" d="M601.383,322.314h-.225c-.15,0-.451-.074-.826-.52-.451-.446-.9-1.041-1.5-1.784a2.143,2.143,0,0,0,.9-1.561,1.123,1.123,0,0,0-.526-.968,2.141,2.141,0,0,0-1.352-.3h-1.8c-.075,0-.15,0-.15.074a.073.073,0,0,0,.021.053.074.074,0,0,0,.054.021h.225c.225,0,.3.149.3.371v2.75a7.621,7.621,0,0,1-.075,1.487c0,.223-.075.371-.225.371h-.225c-.075,0-.075,0-.075.075s.075.074.15.074H597.7c.075,0,.15,0,.15-.074a.074.074,0,0,0-.021-.053.074.074,0,0,0-.054-.022h-.3c-.225,0-.3-.149-.3-.371V320.3c0-.074,0-.074.075-.074h.9c.075,0,.075,0,.075.074a6.867,6.867,0,0,0,.826,1.041c.451.521.676.892.978,1.041a1.631,1.631,0,0,0,.748.149h.451c.15-.075.225-.075.15-.223Zm-2.854-2.453a.72.72,0,0,1-.525.149c-.3,0-.676-.074-.826-.074l-.075-.075v-2.23c0-.074,0-.074.075-.074a4.273,4.273,0,0,1,.526-.075,1.25,1.25,0,0,1,.942.385,1.222,1.222,0,0,1,.334.953c0,.522-.151.894-.451,1.044Z" transform="translate(-528.227 -287.452)" fill="#fff"/>
          <path id="Trazado_855" data-name="Trazado 855" d="M607.158,317.174h-1.277c-.075,0-.15,0-.15.075l.075.075a.161.161,0,0,1,.15.149.477.477,0,0,1-.15.371c-.15.223-1.052,1.709-1.2,2.007l-1.352-2.155c-.075-.074-.075-.149-.075-.3,0-.075,0-.075.075-.149a.263.263,0,0,0,.15-.074.072.072,0,0,0-.021-.053.074.074,0,0,0-.053-.022h-1.352c-.075,0-.075,0-.075.075a.072.072,0,0,0,.022.053.074.074,0,0,0,.053.021.455.455,0,0,1,.3.075,1.075,1.075,0,0,1,.451.521c.225.371,1.2,1.933,1.276,2.007a1.848,1.848,0,0,1,.15.741v1.263c0,.223-.075.371-.225.371H603.7c-.075,0-.075,0-.075.075s0,.075.15.075h1.652c.075,0,.15,0,.15-.075a.073.073,0,0,0-.021-.053.075.075,0,0,0-.054-.022h-.3c-.225,0-.3-.149-.3-.371v-1.263a2.039,2.039,0,0,1,.075-.669c.15-.3,1.2-1.933,1.427-2.23a.881.881,0,0,1,.375-.371.683.683,0,0,1,.375-.075.074.074,0,0,0,.053-.022.072.072,0,0,0,.021-.053Z" transform="translate(-529.719 -287.44)" fill="#fff"/>
          <path id="Trazado_856" data-name="Trazado 856" d="M618.583,322.314h-.225c-.15,0-.451-.074-.826-.52-.451-.446-.9-1.041-1.5-1.784a2.144,2.144,0,0,0,.9-1.561,1.123,1.123,0,0,0-.526-.968,2.141,2.141,0,0,0-1.352-.3h-1.8c-.075,0-.15,0-.15.074a.073.073,0,0,0,.021.053.074.074,0,0,0,.053.022h.225c.225,0,.3.149.3.371v2.75a7.63,7.63,0,0,1-.075,1.487c0,.223-.075.371-.226.371h-.225c-.075,0-.075,0-.075.075s.075.074.15.074H614.9c.075,0,.15,0,.15-.074a.073.073,0,0,0-.021-.053.074.074,0,0,0-.053-.022h-.3c-.226,0-.3-.149-.3-.371V320.3c0-.074,0-.074.075-.074h.9c.075,0,.075,0,.075.074a6.872,6.872,0,0,0,.826,1.041c.451.521.676.892.978,1.041a1.632,1.632,0,0,0,.751.149h.451c.15-.075.225-.075.15-.223Zm-2.854-2.453a.72.72,0,0,1-.526.149c-.3,0-.676-.074-.826-.074l-.075-.075v-2.23c0-.074,0-.074.075-.074a4.277,4.277,0,0,1,.526-.075,1.25,1.25,0,0,1,.942.385,1.223,1.223,0,0,1,.335.953c0,.522-.151.894-.451,1.044Z" transform="translate(-532.507 -287.452)" fill="#fff"/>
          <path id="Trazado_857" data-name="Trazado 857" d="M623.882,321.407c-.075,0-.075,0-.075.074a.879.879,0,0,1-.3.521,2.584,2.584,0,0,1-.748.074c-.751,0-.826-.074-.9-.595V319.7a.073.073,0,0,1,.021-.053.074.074,0,0,1,.053-.022h1.127c.3,0,.375.149.375.223v.223c0,.075,0,.075.075.075s.075-.075.075-.149v-.446a.894.894,0,0,1,.075-.372c0-.074,0-.074-.075-.074l-.075.074c-.075.074-.15.074-.375.074h-1.2c-.075,0-.075,0-.075-.074v-1.933c0-.075,0-.075.075-.075h1.052c.375.075.451.075.525.223a.746.746,0,0,0,.075.223c0,.074,0,.074.075.074l.075-.074c0-.075,0-.372.075-.446a.431.431,0,0,1,.075-.3V316.8h-.075a.456.456,0,0,0-.3.075h-2.554c-.075,0-.15,0-.15.074a.072.072,0,0,0,.022.053.074.074,0,0,0,.053.021h.225c.225,0,.3.149.3.371v2.75a7.634,7.634,0,0,1-.075,1.487c0,.223-.075.372-.225.372h-.225c-.075,0-.075,0-.075.074s.075.074.15.074h2.629c.3,0,.375,0,.375-.149a2.274,2.274,0,0,0,.075-.669C623.956,321.481,623.956,321.407,623.882,321.407Z" transform="translate(-534.425 -287.361)" fill="#fff"/>
          <path id="Trazado_858" data-name="Trazado 858" d="M628.257,319.4l-.226-.149c-.748-.52-.978-.741-.978-1.189,0-.52.451-.741.978-.741a1.167,1.167,0,0,1,.978.372c.075.074.075.3.075.371s0,.075.075.075.075-.075.075-.149v-.741c0-.074,0-.074-.075-.074h-.225a2.116,2.116,0,0,0-.748-.074c-.978,0-1.652.52-1.652,1.338,0,.521.225.892,1.052,1.487l.3.223c.676.446.9.741.9,1.189a.978.978,0,0,1-.342.737,1,1,0,0,1-.785.232c-.526,0-1.052-.149-1.126-.669v-.223a.073.073,0,0,0-.022-.053.074.074,0,0,0-.053-.021c-.075,0-.075.074-.075.149,0,.149-.075.371-.075.741,0,.223,0,.223.075.3a2.673,2.673,0,0,0,1.051.223,2.77,2.77,0,0,0,1.127-.223,1.428,1.428,0,0,0,.676-1.189C629.458,320.518,629.158,320,628.257,319.4Z" transform="translate(-535.796 -287.439)" fill="#fff"/>
          <path id="Trazado_859" data-name="Trazado 859" d="M635.028,317a2.858,2.858,0,0,0-2.044.771,2.8,2.8,0,0,0-.885,1.979,2.648,2.648,0,0,0,.812,2,2.706,2.706,0,0,0,2.042.75,2.84,2.84,0,0,0,2.076-.791,2.781,2.781,0,0,0,.853-2.033A2.593,2.593,0,0,0,635.028,317Zm.15,5.2a2.389,2.389,0,0,1-2.328-2.677,2.065,2.065,0,0,1,2.1-2.3,2.275,2.275,0,0,1,2.178,2.527c.075,2.157-1.277,2.454-1.952,2.454Z" transform="translate(-537.235 -287.413)" fill="#fff"/>
          <path id="Trazado_860" data-name="Trazado 860" d="M646.583,322.314h-.225c-.15,0-.451-.074-.826-.52-.451-.446-.9-1.041-1.5-1.784a2.144,2.144,0,0,0,.9-1.561,1.123,1.123,0,0,0-.526-.968,2.141,2.141,0,0,0-1.352-.3h-1.8c-.075,0-.15,0-.15.074a.073.073,0,0,0,.021.053.074.074,0,0,0,.054.022h.225c.225,0,.3.149.3.371v2.75a7.645,7.645,0,0,1-.075,1.487c0,.223-.075.371-.225.371h-.226c-.075,0-.075,0-.075.075s.075.074.15.074H642.9c.075,0,.15,0,.15-.074a.073.073,0,0,0-.021-.053.074.074,0,0,0-.053-.022h-.3c-.225,0-.3-.149-.3-.371V320.3c0-.074,0-.074.075-.074h.9c.075,0,.075,0,.075.074a6.867,6.867,0,0,0,.826,1.041c.451.521.676.892.978,1.041a1.631,1.631,0,0,0,.751.149h.451c.15-.075.15-.075.15-.223Zm-2.854-2.453a.72.72,0,0,1-.526.149c-.3,0-.676-.074-.826-.074l-.075-.075v-2.23c0-.074,0-.074.075-.074a4.276,4.276,0,0,1,.526-.075,1.25,1.25,0,0,1,.943.385,1.222,1.222,0,0,1,.335.953c0,.522-.151.894-.451,1.044Z" transform="translate(-539.477 -287.452)" fill="#fff"/>
          <path id="Trazado_861" data-name="Trazado 861" d="M651.957,317.074h-4.131a.443.443,0,0,1-.3-.074.259.259,0,0,0-.075.149c0,.074-.15.669-.15.741s0,.074.075.074a.074.074,0,0,0,.053-.021.073.073,0,0,0,.022-.053c0-.074,0-.074.15-.223.075-.149.3-.223.748-.223H649.4v4.46c0,.223-.075.371-.225.371h-.225c-.075,0-.075,0-.075.075s0,.074.15.074h1.652c.075,0,.15,0,.15-.074a.072.072,0,0,0-.021-.053.074.074,0,0,0-.053-.021h-.3c-.225,0-.225-.149-.3-.371v-4.46h.9c.676,0,.826.149.9.371v.075c0,.074,0,.149.075.149a.074.074,0,0,0,.053-.021.072.072,0,0,0,.022-.053v-.817C652.032,317.149,652.032,317.074,651.957,317.074Z" transform="translate(-541.02 -287.414)" fill="#fff"/>
        </g>
      </g>
    </g>
  </g>
</svg>
